# Blender 4.2.3 LTS
# www.blender.org
mtllib mechanical_sieve.mtl
o base
v 0.969190 0.479627 0.008272
v 0.969190 0.538279 0.008272
v 0.969190 0.479627 0.996354
v 0.969190 0.538279 0.996354
v 0.996511 0.479627 0.008272
v 0.996511 0.538279 0.008272
v 0.996511 0.479627 0.996354
v 0.996511 0.538279 0.996354
v 0.967492 0.478858 0.032508
v 1.000000 0.413907 0.000000
v 0.032508 0.478858 0.032508
v 0.000000 0.413907 0.000000
v 0.000000 0.413907 0.128707
v 0.967492 0.478858 0.096198
v 0.032508 0.478858 0.096198
v 1.000000 0.413907 0.128707
v 0.000000 0.478858 0.128707
v 0.000000 0.478858 0.000000
v 1.000000 0.478858 0.000000
v 1.000000 0.478858 0.128707
v 0.969578 0.577786 0.032806
v 0.034594 0.577786 0.032806
v 0.969578 0.577786 0.096496
v 0.034594 0.577786 0.096496
v 0.002086 0.577786 0.129004
v 0.002086 0.577786 0.000298
v 1.002086 0.577786 0.000298
v 1.002086 0.577786 0.129004
v 0.002086 0.577786 0.129004
v 0.002086 0.577786 0.000298
v 1.002086 0.577786 0.000298
v 1.002086 0.577786 0.129004
v 0.002203 0.604954 0.129538
v 0.002203 0.604954 0.000831
v 1.002203 0.604954 0.000831
v 1.002203 0.604954 0.129538
v 0.967492 0.478858 0.967492
v 1.000000 0.413907 1.000000
v 0.032508 0.478858 0.967492
v 0.000000 0.413907 1.000000
v 0.000000 0.413907 0.871293
v 0.967492 0.478858 0.903802
v 0.032508 0.478858 0.903802
v 1.000000 0.413907 0.871293
v 0.000000 0.478858 0.871293
v 0.000000 0.478858 1.000000
v 1.000000 0.478858 1.000000
v 1.000000 0.478858 0.871293
v 0.969578 0.577786 0.967194
v 0.034594 0.577786 0.967194
v 0.969578 0.577786 0.903504
v 0.034594 0.577786 0.903504
v 0.002086 0.577786 0.870996
v 0.002086 0.577786 0.999702
v 1.002086 0.577786 0.999702
v 1.002086 0.577786 0.870996
v 0.002086 0.577786 0.870996
v 0.002086 0.577786 0.999702
v 1.002086 0.577786 0.999702
v 1.002086 0.577786 0.870996
v 0.002203 0.604954 0.870462
v 0.002203 0.604954 0.999169
v 1.002203 0.604954 0.999169
v 1.002203 0.604954 0.870462
v 0.884527 0.411439 0.003631
v 0.884527 0.349501 0.003631
v 0.884527 0.411439 0.996369
v 0.884527 0.349501 0.996369
v 0.981951 0.411439 0.003631
v 0.981951 0.349501 0.003631
v 0.981951 0.411439 0.996369
v 0.981951 0.349501 0.996369
v 0.981541 0.005565 0.983738
v 0.981541 0.348705 0.983738
v 0.884444 0.005565 0.983738
v 0.884444 0.348705 0.983738
v 0.981541 0.005565 0.886642
v 0.981541 0.348705 0.886642
v 0.884444 0.005565 0.886642
v 0.884444 0.348705 0.886642
v 0.115556 0.005565 0.983738
v 0.115556 0.418573 0.983738
v 0.018459 0.005565 0.983738
v 0.018459 0.418573 0.983738
v 0.115556 0.005565 0.886642
v 0.115556 0.418573 0.886642
v 0.018459 0.005565 0.886642
v 0.018459 0.418573 0.886642
v 0.115556 0.005565 0.113358
v 0.115556 0.418573 0.113358
v 0.018459 0.005565 0.113358
v 0.018459 0.418573 0.113358
v 0.115556 0.005565 0.016261
v 0.115556 0.418573 0.016261
v 0.018459 0.005565 0.016261
v 0.018459 0.418573 0.016261
v 0.981541 0.005565 0.113358
v 0.981541 0.348705 0.113358
v 0.884444 0.005565 0.113358
v 0.884444 0.348705 0.113358
v 0.981541 0.005565 0.016261
v 0.981541 0.348705 0.016261
v 0.884444 0.005565 0.016261
v 0.884444 0.348705 0.016261
v 0.020356 0.154578 0.106938
v 0.020356 0.105531 0.106938
v 0.020356 0.154578 0.893062
v 0.020356 0.105531 0.893062
v 0.097504 0.154578 0.106938
v 0.097504 0.105531 0.106938
v 0.097504 0.154578 0.893062
v 0.097504 0.105531 0.893062
vn -1.0000 -0.0000 -0.0000
vn -0.0000 -0.0000 1.0000
vn 1.0000 -0.0000 -0.0000
vn -0.0000 -0.0000 -1.0000
vn -0.0000 -1.0000 -0.0000
vn -0.0000 1.0000 -0.0000
vn -0.0000 -0.0030 1.0000
vn -0.9998 0.0211 -0.0000
vn -0.0000 0.0030 -1.0000
vn 0.9998 -0.0211 -0.0000
vn -0.0000 0.0196 -0.9998
vn 1.0000 -0.0043 -0.0000
vn -0.0000 -0.0196 0.9998
vn -1.0000 0.0043 -0.0000
vn -0.0000 -0.0030 -1.0000
vn -0.0000 0.0030 1.0000
vn -0.0000 0.0196 0.9998
vn -0.0000 -0.0196 -0.9998
vt 0.125946 0.125946
vt 0.125946 0.874054
vt 0.874054 0.874054
vt 0.874054 0.125946
vt 0.048938 0.994251
vt 0.001843 0.994251
vt 0.001843 0.947155
vt 0.048938 0.947155
vt 0.000000 0.000000
vt 1.000000 0.000000
vt 1.000000 1.000000
vt 0.000000 1.000000
vt 1.004497 0.001679
vt 0.007643 0.001679
vt 0.007643 0.129143
vt 1.004497 0.129143
vt -0.000932 -0.000932
vt 1.000932 -0.000932
vt 1.000932 0.121826
vt -0.000932 0.121826
vt 1.000000 0.126022
vt 0.000000 0.126022
vt 0.000000 0.868369
vt 1.000000 0.868369
s 0
usemtl Material
f 1/1/1 3/2/1 4/3/1 2/4/1
f 3/1/2 7/2/2 8/3/2 4/4/2
f 7/1/3 5/2/3 6/3/3 8/4/3
f 5/1/4 1/2/4 2/3/4 6/4/4
f 3/1/5 1/2/5 5/3/5 7/4/5
f 8/1/6 6/2/6 2/3/6 4/4/6
f 13/5/1 17/6/1 18/7/1 12/8/1
f 12/9/4 18/10/4 19/11/4 10/12/4
f 10/5/3 19/6/3 20/7/3 16/8/3
f 12/9/5 10/10/5 16/11/5 13/12/5
f 16/9/2 20/10/2 17/11/2 13/12/2
f 15/13/6 11/14/6 18/15/6 17/16/6
f 11/17/6 9/18/6 19/19/6 18/20/6
f 9/9/6 14/10/6 20/21/6 19/22/6
f 14/23/6 15/24/6 17/11/6 20/12/6
f 23/1/7 24/4/7 15/3/7 14/2/7
f 26/1/5 22/2/5 24/3/5 25/4/5
f 11/1/8 15/4/8 24/3/8 22/2/8
f 23/1/5 28/4/5 25/3/5 24/2/5
f 27/1/5 21/2/5 22/3/5 26/4/5
f 9/1/9 11/4/9 22/3/9 21/2/9
f 23/1/5 24/2/5 22/3/5 21/4/5
f 9/1/10 21/4/10 23/3/10 14/2/10
f 23/1/5 21/4/5 27/3/5 28/2/5
f 25/1/6 28/4/6 32/3/6 29/2/6
f 26/1/6 30/2/6 31/3/6 27/4/6
f 28/1/6 27/4/6 31/3/6 32/2/6
f 25/1/6 29/2/6 30/3/6 26/4/6
f 30/1/11 34/2/11 35/3/11 31/4/11
f 32/1/12 31/4/12 35/3/12 36/2/12
f 29/1/13 32/4/13 36/3/13 33/2/13
f 29/1/14 33/2/14 34/3/14 30/4/14
f 34/1/6 33/2/6 36/3/6 35/4/6
f 41/5/1 40/8/1 46/7/1 45/6/1
f 40/9/2 38/12/2 47/11/2 46/10/2
f 38/5/3 44/8/3 48/7/3 47/6/3
f 40/9/5 41/12/5 44/11/5 38/10/5
f 44/9/4 41/12/4 45/11/4 48/10/4
f 43/9/6 45/22/6 46/21/6 39/10/6
f 39/17/6 46/20/6 47/19/6 37/18/6
f 37/9/6 47/22/6 48/21/6 42/10/6
f 42/23/6 48/12/6 45/11/6 43/24/6
f 51/1/15 42/2/15 43/3/15 52/4/15
f 54/1/5 53/4/5 52/3/5 50/2/5
f 39/1/8 50/2/8 52/3/8 43/4/8
f 51/1/5 52/2/5 53/3/5 56/4/5
f 55/1/5 54/4/5 50/3/5 49/2/5
f 37/1/16 49/2/16 50/3/16 39/4/16
f 51/1/5 49/4/5 50/3/5 52/2/5
f 37/1/10 42/2/10 51/3/10 49/4/10
f 51/1/5 56/2/5 55/3/5 49/4/5
f 53/1/6 57/2/6 60/3/6 56/4/6
f 54/1/6 55/4/6 59/3/6 58/2/6
f 56/1/6 60/2/6 59/3/6 55/4/6
f 53/1/6 54/4/6 58/3/6 57/2/6
f 58/1/17 59/4/17 63/3/17 62/2/17
f 60/1/12 64/2/12 63/3/12 59/4/12
f 57/1/18 61/2/18 64/3/18 60/4/18
f 57/1/14 58/4/14 62/3/14 61/2/14
f 62/1/6 63/4/6 64/3/6 61/2/6
f 65/1/1 66/4/1 68/3/1 67/2/1
f 67/1/2 68/4/2 72/3/2 71/2/2
f 71/1/3 72/4/3 70/3/3 69/2/3
f 69/1/4 70/4/4 66/3/4 65/2/4
f 67/1/6 71/4/6 69/3/6 65/2/6
f 72/1/5 68/4/5 66/3/5 70/2/5
f 73/1/2 74/4/2 76/3/2 75/2/2
f 75/1/1 76/4/1 80/3/1 79/2/1
f 79/1/4 80/4/4 78/3/4 77/2/4
f 77/1/3 78/4/3 74/3/3 73/2/3
f 75/1/5 79/4/5 77/3/5 73/2/5
f 80/1/6 76/4/6 74/3/6 78/2/6
f 81/1/2 82/4/2 84/3/2 83/2/2
f 83/1/1 84/4/1 88/3/1 87/2/1
f 87/1/4 88/4/4 86/3/4 85/2/4
f 85/1/3 86/4/3 82/3/3 81/2/3
f 83/1/5 87/4/5 85/3/5 81/2/5
f 88/1/6 84/4/6 82/3/6 86/2/6
f 89/1/2 90/4/2 92/3/2 91/2/2
f 91/1/1 92/4/1 96/3/1 95/2/1
f 95/1/4 96/4/4 94/3/4 93/2/4
f 93/1/3 94/4/3 90/3/3 89/2/3
f 91/1/5 95/4/5 93/3/5 89/2/5
f 96/1/6 92/4/6 90/3/6 94/2/6
f 97/1/2 98/4/2 100/3/2 99/2/2
f 99/1/1 100/4/1 104/3/1 103/2/1
f 103/1/4 104/4/4 102/3/4 101/2/4
f 101/1/3 102/4/3 98/3/3 97/2/3
f 99/1/5 103/4/5 101/3/5 97/2/5
f 104/1/6 100/4/6 98/3/6 102/2/6
f 105/1/1 106/4/1 108/3/1 107/2/1
f 107/1/2 108/4/2 112/3/2 111/2/2
f 111/1/3 112/4/3 110/3/3 109/2/3
f 109/1/4 110/4/4 106/3/4 105/2/4
f 107/1/6 111/4/6 109/3/6 105/2/6
f 112/1/5 108/4/5 106/3/5 110/2/5
o arm
v -0.676345 0.043441 -0.023959
v -0.676345 -0.041928 -0.023959
v 0.061381 0.043441 -0.022315
v 0.061381 -0.041928 -0.022315
v -0.677242 0.043441 0.030510
v -0.677242 -0.041928 0.030510
v 0.060484 0.043441 0.032153
v 0.060484 -0.041928 0.032153
vn 0.0022 -0.0000 -1.0000
vn 0.9999 -0.0000 0.0165
vn -0.0022 -0.0000 1.0000
vn -0.9999 -0.0000 -0.0165
vn -0.0000 1.0000 -0.0000
vn -0.0000 -1.0000 -0.0000
vt 0.375000 0.250000
vt 0.625000 0.000000
vt 0.375000 0.000000
vt 0.375000 0.500000
vt 0.625000 0.250000
vt 0.375000 0.750000
vt 0.625000 0.500000
vt 0.375000 1.000000
vt 0.625000 0.750000
vt 0.125000 0.750000
vt 0.125000 0.500000
vt 0.875000 0.750000
vt 0.875000 0.500000
vt 0.625000 1.000000
s 0
usemtl 
f 115/25/19 114/26/19 113/27/19
f 119/28/20 116/29/20 115/25/20
f 117/30/21 120/31/21 119/28/21
f 113/32/22 118/33/22 117/30/22
f 113/34/23 119/28/23 115/35/23
f 120/31/24 114/36/24 116/37/24
f 115/25/19 116/29/19 114/26/19
f 119/28/20 120/31/20 116/29/20
f 117/30/21 118/33/21 120/31/21
f 113/32/22 114/38/22 118/33/22
f 113/34/23 117/30/23 119/28/23
f 120/31/24 118/33/24 114/36/24
o sieve.002
v 0.289043 -0.015035 -0.335627
v 0.289043 0.066934 -0.335627
v 0.289043 -0.015035 0.335627
v 0.289043 0.066934 0.335627
v -0.289043 -0.015035 -0.335627
v -0.289043 0.066934 -0.335627
v -0.289043 -0.015035 0.335627
v -0.289043 0.066934 0.335627
v 0.322025 -0.018466 0.398143
v 0.322025 -0.018466 -0.398143
v 0.322025 0.070365 -0.398143
v 0.322025 0.070365 0.398143
v -0.322025 -0.018466 0.398143
v -0.322025 0.070365 0.398143
v -0.322025 -0.018466 -0.398143
v -0.322025 0.070365 -0.398143
v -0.364905 0.057442 -0.110440
v -0.364905 -0.000490 -0.110440
v -0.364905 0.057442 0.118634
v -0.364905 -0.000490 0.118634
v -0.422837 0.057442 -0.110440
v -0.422837 -0.000490 -0.110440
v -0.422837 0.057442 0.118634
v -0.422837 -0.000490 0.118634
v -0.429265 0.061475 0.119481
v -0.429265 -0.004523 0.119481
v -0.320243 0.061475 0.118369
v -0.320243 -0.004523 0.118369
v -0.428969 0.061475 0.145690
v -0.428969 -0.004523 0.145690
v -0.319948 0.061475 0.144578
v -0.319948 -0.004523 0.144578
v -0.429265 0.061475 -0.135827
v -0.429265 -0.004523 -0.135827
v -0.320243 0.061475 -0.136938
v -0.320243 -0.004523 -0.136938
v -0.428969 0.061475 -0.109618
v -0.428969 -0.004523 -0.109618
v -0.319948 0.061475 -0.110729
v -0.319948 -0.004523 -0.110729
vn 1.0000 -0.0000 -0.0000
vn -0.0000 -0.0000 1.0000
vn -0.0000 -0.0000 -1.0000
vn -1.0000 -0.0000 -0.0000
vn -0.1035 -0.9946 -0.0000
vn -0.1035 0.9946 -0.0000
vn -0.0000 -0.9985 -0.0548
vn -0.0000 0.9985 -0.0548
vn 0.1035 -0.9946 -0.0000
vn -0.0000 -0.9985 0.0548
vn -0.0000 0.9985 0.0548
vn 0.9328 0.3603 -0.0000
vn 0.1035 0.9946 -0.0000
vn -0.0000 1.0000 -0.0000
vn -0.0000 -1.0000 -0.0000
vn -0.0102 -0.0000 -0.9999
vn 0.9999 -0.0000 -0.0113
vn 0.0102 -0.0000 0.9999
vn -0.9999 -0.0000 0.0113
vt 0.625000 0.000000
vt 0.375000 0.250000
vt 0.375000 0.000000
vt 0.625000 0.250000
vt 0.375000 0.500000
vt 0.625000 0.750000
vt 0.375000 1.000000
vt 0.375000 0.750000
vt 0.638360 0.510806
vt 0.138360 0.510806
vt 0.361640 0.510806
vt 0.625000 0.500000
vt 0.138360 0.739194
vt 0.125000 0.500000
vt 0.861640 0.510806
vt 0.875000 0.750000
vt 0.861640 0.739194
vt 0.875000 0.500000
vt 0.638360 0.739194
vt 0.361640 0.739194
vt 0.125000 0.750000
vt 0.000000 0.000000
vt 0.625000 1.000000
s 0
usemtl 
f 131/39/25 129/40/25 130/41/25
f 132/42/26 133/43/26 129/40/26
f 136/44/27 130/45/27 135/46/27
f 128/47/27 123/48/27 127/49/27
f 134/50/28 135/46/28 133/43/28
f 121/51/29 129/52/29 123/48/29
f 124/53/30 131/54/30 122/55/30
f 123/48/31 133/43/31 127/49/31
f 124/53/32 134/50/32 132/56/32
f 126/57/25 127/49/25 125/58/25
f 127/49/33 135/46/33 125/58/33
f 125/58/34 130/59/34 121/51/34
f 126/57/35 131/54/35 136/44/35
f 122/55/26 125/58/26 121/51/26
f 122/55/36 129/40/36 130/41/36
f 124/60/28 121/60/28 123/60/28
f 126/57/37 134/50/37 128/47/37
f 139/40/25 138/39/25 137/41/25
f 143/43/26 140/42/26 139/40/26
f 141/46/28 144/50/28 143/43/28
f 137/45/27 142/44/27 141/46/27
f 137/59/38 143/43/38 139/52/38
f 144/50/39 138/54/39 140/56/39
f 131/39/25 132/42/25 129/40/25
f 132/42/26 134/50/26 133/43/26
f 136/44/27 131/61/27 130/45/27
f 128/47/27 124/53/27 123/48/27
f 134/50/28 136/44/28 135/46/28
f 121/51/29 130/59/29 129/52/29
f 124/53/30 132/56/30 131/54/30
f 123/48/31 129/52/31 133/43/31
f 124/53/32 128/47/32 134/50/32
f 126/57/25 128/47/25 127/49/25
f 127/49/33 133/43/33 135/46/33
f 125/58/34 135/46/34 130/59/34
f 126/57/35 122/55/35 131/54/35
f 122/55/26 126/57/26 125/58/26
f 122/55/36 124/53/36 129/40/36
f 124/60/28 122/60/28 121/60/28
f 126/57/37 136/44/37 134/50/37
f 139/40/25 140/42/25 138/39/25
f 143/43/26 144/50/26 140/42/26
f 141/46/28 142/44/28 144/50/28
f 137/45/27 138/61/27 142/44/27
f 137/59/38 141/46/38 143/43/38
f 144/50/39 142/44/39 138/54/39
usemtl 
f 147/40/40 146/39/40 145/41/40
f 151/43/41 148/42/41 147/40/41
f 149/46/42 152/50/42 151/43/42
f 145/45/43 150/44/43 149/46/43
f 147/52/38 149/46/38 151/43/38
f 150/44/39 148/56/39 152/50/39
f 147/40/40 148/42/40 146/39/40
f 151/43/41 152/50/41 148/42/41
f 149/46/42 150/44/42 152/50/42
f 145/45/43 146/61/43 150/44/43
f 147/52/38 145/59/38 149/46/38
f 150/44/39 146/54/39 148/56/39
usemtl 
f 155/40/40 154/39/40 153/41/40
f 159/43/41 156/42/41 155/40/41
f 157/46/42 160/50/42 159/43/42
f 153/45/43 158/44/43 157/46/43
f 155/52/38 157/46/38 159/43/38
f 158/44/39 156/56/39 160/50/39
f 155/40/40 156/42/40 154/39/40
f 159/43/41 160/50/41 156/42/41
f 157/46/42 158/44/42 160/50/42
f 153/45/43 154/61/43 158/44/43
f 155/52/38 153/59/38 157/46/38
f 158/44/39 154/54/39 156/56/39
o sieve.001
v -0.289356 0.000000 0.338962
v 0.289356 0.000000 0.338962
v -0.289356 0.000000 -0.338962
v 0.289356 0.000000 -0.338962
vn -0.0000 1.0000 -0.0000
vt 1.000000 0.000000
vt 0.000000 1.000000
vt 0.000000 0.000000
vt 1.000000 1.000000
s 0
f 162/62/44 163/63/44 161/64/44
f 162/62/44 164/65/44 163/63/44
