# Blender 4.2.3 LTS
# www.blender.org
mtllib mechanical_sieve.mtl
o arm
v -0.676345 0.043441 -0.023959
v -0.676345 -0.041928 -0.023959
v 0.061381 0.043441 -0.022315
v 0.061381 -0.041928 -0.022315
v -0.677242 0.043441 0.030510
v -0.677242 -0.041928 0.030510
v 0.060484 0.043441 0.032153
v 0.060484 -0.041928 0.032153
vn 0.0022 -0.0000 -1.0000
vn 0.9999 -0.0000 0.0165
vn -0.0022 -0.0000 1.0000
vn -0.9999 -0.0000 -0.0165
vn -0.0000 1.0000 -0.0000
vn -0.0000 -1.0000 -0.0000
vt 0.375000 0.250000
vt 0.625000 0.000000
vt 0.375000 0.000000
vt 0.375000 0.500000
vt 0.625000 0.250000
vt 0.375000 0.750000
vt 0.625000 0.500000
vt 0.375000 1.000000
vt 0.625000 0.750000
vt 0.125000 0.750000
vt 0.125000 0.500000
vt 0.875000 0.750000
vt 0.875000 0.500000
vt 0.625000 1.000000
s 0
usemtl 
f 3/1/1 2/2/1 1/3/1
f 7/4/2 4/5/2 3/1/2
f 5/6/3 8/7/3 7/4/3
f 1/8/4 6/9/4 5/6/4
f 1/10/5 7/4/5 3/11/5
f 8/7/6 2/12/6 4/13/6
f 3/1/1 4/5/1 2/2/1
f 7/4/2 8/7/2 4/5/2
f 5/6/3 6/9/3 8/7/3
f 1/8/4 2/14/4 6/9/4
f 1/10/5 5/6/5 7/4/5
f 8/7/6 6/9/6 2/12/6
o sieve.001
v -0.306122 0.000000 0.345626
v 0.283968 0.000000 0.345626
v -0.306122 0.000000 -0.345626
v 0.283968 0.000000 -0.345626
vn -0.0000 1.0000 -0.0000
vt 1.000000 0.000000
vt 0.000000 1.000000
vt 0.000000 0.000000
vt 1.000000 1.000000
s 0
f 10/15/7 11/16/7 9/17/7
f 10/15/7 12/18/7 11/16/7
o sieve
v 0.276648 -0.011183 -0.335627
v 0.276648 0.070785 -0.335627
v 0.276648 -0.011183 0.335627
v 0.276648 0.070785 0.335627
v -0.301437 -0.011183 -0.335627
v -0.301437 0.070785 -0.335627
v -0.301437 -0.011183 0.335627
v -0.301437 0.070785 0.335627
v 0.309631 -0.014614 0.398143
v 0.309631 -0.014614 -0.398143
v 0.309631 0.074216 -0.398143
v 0.309631 0.074216 0.398143
v -0.334419 -0.014614 0.398143
v -0.334419 0.074216 0.398143
v -0.334419 -0.014614 -0.398143
v -0.334419 0.074216 -0.398143
v -0.377299 0.061293 -0.110440
v -0.377299 0.003361 -0.110440
v -0.377299 0.061293 0.118634
v -0.377299 0.003361 0.118634
v -0.435231 0.061293 -0.110440
v -0.435231 0.003361 -0.110440
v -0.435231 0.061293 0.118634
v -0.435231 0.003361 0.118634
v -0.441659 0.065327 0.119481
v -0.441659 -0.000672 0.119481
v -0.332638 0.065327 0.118369
v -0.332638 -0.000672 0.118369
v -0.441364 0.065327 0.145690
v -0.441364 -0.000672 0.145690
v -0.332342 0.065327 0.144578
v -0.332342 -0.000672 0.144578
v -0.441659 0.065327 -0.135827
v -0.441659 -0.000672 -0.135827
v -0.332638 0.065327 -0.136938
v -0.332638 -0.000672 -0.136938
v -0.441364 0.065327 -0.109618
v -0.441364 -0.000672 -0.109618
v -0.332342 0.065327 -0.110729
v -0.332342 -0.000672 -0.110729
vn 1.0000 -0.0000 -0.0000
vn -0.0000 -0.0000 1.0000
vn -0.0000 -0.0000 -1.0000
vn -1.0000 -0.0000 -0.0000
vn -0.1035 -0.9946 -0.0000
vn -0.1035 0.9946 -0.0000
vn -0.0000 -0.9985 -0.0548
vn -0.0000 0.9985 -0.0548
vn 0.1035 -0.9946 -0.0000
vn -0.0000 -0.9985 0.0548
vn -0.0000 0.9985 0.0548
vn 0.9328 0.3603 -0.0000
vn 0.1035 0.9946 -0.0000
vn -0.0000 1.0000 -0.0000
vn -0.0000 -1.0000 -0.0000
vn -0.0102 -0.0000 -0.9999
vn 0.9999 -0.0000 -0.0113
vn 0.0102 -0.0000 0.9999
vn -0.9999 -0.0000 0.0113
vt 0.625000 0.000000
vt 0.375000 0.250000
vt 0.375000 0.000000
vt 0.625000 0.250000
vt 0.375000 0.500000
vt 0.625000 0.750000
vt 0.375000 1.000000
vt 0.375000 0.750000
vt 0.638360 0.510806
vt 0.138360 0.510806
vt 0.361640 0.510806
vt 0.625000 0.500000
vt 0.138360 0.739194
vt 0.125000 0.500000
vt 0.861640 0.510806
vt 0.875000 0.750000
vt 0.861640 0.739194
vt 0.875000 0.500000
vt 0.638360 0.739194
vt 0.361640 0.739194
vt 0.125000 0.750000
vt 0.000000 0.000000
vt 0.625000 1.000000
s 0
usemtl Material.003
f 23/19/8 21/20/8 22/21/8
f 24/22/9 25/23/9 21/20/9
f 28/24/10 22/25/10 27/26/10
f 20/27/10 15/28/10 19/29/10
f 26/30/11 27/26/11 25/23/11
f 13/31/12 21/32/12 15/28/12
f 16/33/13 23/34/13 14/35/13
f 15/28/14 25/23/14 19/29/14
f 20/27/15 24/36/15 16/33/15
f 18/37/8 19/29/8 17/38/8
f 19/29/16 27/26/16 17/38/16
f 17/38/17 22/39/17 13/31/17
f 14/35/18 28/24/18 18/37/18
f 14/35/9 17/38/9 13/31/9
f 22/21/19 14/35/19 16/33/19
f 16/40/11 13/40/11 15/40/11
f 18/37/20 26/30/20 20/27/20
f 30/19/8 29/21/8 31/20/8
f 32/22/9 31/20/9 35/23/9
f 36/30/11 35/23/11 33/26/11
f 34/24/10 33/26/10 29/25/10
f 35/23/21 31/32/21 29/39/21
f 36/30/22 34/24/22 30/34/22
f 23/19/8 24/22/8 21/20/8
f 24/22/9 26/30/9 25/23/9
f 28/24/10 23/41/10 22/25/10
f 20/27/10 16/33/10 15/28/10
f 26/30/11 28/24/11 27/26/11
f 13/31/12 22/39/12 21/32/12
f 16/33/13 24/36/13 23/34/13
f 15/28/14 21/32/14 25/23/14
f 20/27/15 26/30/15 24/36/15
f 18/37/8 20/27/8 19/29/8
f 19/29/16 25/23/16 27/26/16
f 17/38/17 27/26/17 22/39/17
f 14/35/18 23/34/18 28/24/18
f 14/35/9 18/37/9 17/38/9
f 22/21/19 16/33/19 21/20/19
f 16/40/11 14/40/11 13/40/11
f 18/37/20 28/24/20 26/30/20
f 30/19/8 31/20/8 32/22/8
f 32/22/9 35/23/9 36/30/9
f 36/30/11 33/26/11 34/24/11
f 34/24/10 29/25/10 30/41/10
f 35/23/21 29/39/21 33/26/21
f 36/30/22 30/34/22 32/36/22
usemtl 
f 38/19/23 37/21/23 39/20/23
f 40/22/24 39/20/24 43/23/24
f 44/30/25 43/23/25 41/26/25
f 42/24/26 41/26/26 37/25/26
f 39/32/21 37/39/21 41/26/21
f 40/36/22 44/30/22 42/24/22
f 38/19/23 39/20/23 40/22/23
f 40/22/24 43/23/24 44/30/24
f 44/30/25 41/26/25 42/24/25
f 42/24/26 37/25/26 38/41/26
f 39/32/21 41/26/21 43/23/21
f 40/36/22 42/24/22 38/34/22
usemtl 
f 46/19/23 45/21/23 47/20/23
f 48/22/24 47/20/24 51/23/24
f 52/30/25 51/23/25 49/26/25
f 50/24/26 49/26/26 45/25/26
f 47/32/21 45/39/21 49/26/21
f 48/36/22 52/30/22 50/24/22
f 46/19/23 47/20/23 48/22/23
f 48/22/24 51/23/24 52/30/24
f 52/30/25 49/26/25 50/24/25
f 50/24/26 45/25/26 46/41/26
f 47/32/21 49/26/21 51/23/21
f 48/36/22 50/24/22 46/34/22
o hopper_plane
v -0.489861 0.000000 0.489861
v 0.489861 0.000000 0.489861
v -0.489861 0.000000 -0.489861
v 0.489861 0.000000 -0.489861
vn -0.0000 1.0000 -0.0000
vt 1.000000 0.000000
vt 0.000000 1.000000
vt 0.000000 0.000000
vt 1.000000 1.000000
s 0
f 54/42/27 55/43/27 53/44/27
f 54/42/27 56/45/27 55/43/27
