# Blender 4.2.3 LTS
# www.blender.org
mtllib woodmill.mtl
o saw
v -0.019510 -0.468782 0.389330
v -0.019510 0.426187 0.389330
v -0.019510 -0.468782 0.350310
v -0.019510 0.426187 0.350310
v 0.019510 -0.468782 0.389330
v 0.019510 0.426187 0.389330
v 0.019510 -0.468782 0.350310
v 0.019510 0.426187 0.350310
v -0.025808 -0.466303 0.409542
v -0.025808 -0.414687 0.409542
v -0.025808 -0.466303 -0.409542
v -0.025808 -0.414687 -0.409542
v 0.025808 -0.466303 0.409542
v 0.025808 -0.414687 0.409542
v 0.025808 -0.466303 -0.409542
v 0.025808 -0.414687 -0.409542
v -0.025808 0.386305 0.409542
v -0.025808 0.437922 0.409542
v -0.025808 0.386305 -0.409542
v -0.025808 0.437922 -0.409542
v 0.025808 0.386305 0.409542
v 0.025808 0.437922 0.409542
v 0.025808 0.386305 -0.409542
v 0.025808 0.437922 -0.409542
v -0.019510 -0.468782 -0.355381
v -0.019510 0.426187 -0.355381
v -0.019510 -0.468782 -0.394401
v -0.019510 0.426187 -0.394401
v 0.019510 -0.468782 -0.355381
v 0.019510 0.426187 -0.355381
v 0.019510 -0.468782 -0.394401
v 0.019510 0.426187 -0.394401
v -0.025757 -0.418062 0.002172
v -0.025273 0.390495 0.002172
v -0.025757 -0.418062 -0.002172
v -0.025273 0.390495 -0.002172
v 0.025089 -0.418062 0.002172
v 0.025089 0.390495 0.002172
v 0.025089 -0.418062 -0.002172
v 0.025089 0.390495 -0.002172
v -0.011675 -0.337145 0.002172
v -0.038329 -0.349783 0.002172
v -0.011675 -0.229337 0.002172
v -0.038329 -0.241975 0.002172
v -0.011675 -0.121530 0.002172
v -0.038329 -0.134168 0.002172
v -0.011675 -0.013722 0.002172
v -0.038329 -0.026360 0.002172
v -0.011675 0.094085 0.002172
v -0.038329 0.081447 0.002172
v -0.011675 0.201893 0.002172
v -0.038329 0.189255 0.002172
v -0.011675 0.309700 0.002172
v -0.038329 0.297062 0.002172
v -0.038329 0.297062 -0.002172
v -0.011675 0.309700 -0.002172
v -0.038329 0.189255 -0.002172
v -0.011675 0.201893 -0.002172
v -0.038329 0.081447 -0.002172
v -0.011675 0.094085 -0.002172
v -0.038329 -0.026360 -0.002172
v -0.011675 -0.013722 -0.002172
v -0.038329 -0.134168 -0.002172
v -0.011675 -0.121530 -0.002172
v -0.038329 -0.241975 -0.002172
v -0.011675 -0.229337 -0.002172
v -0.038329 -0.349783 -0.002172
v -0.011675 -0.337145 -0.002172
v 0.025089 0.336591 -0.002172
v 0.025089 0.282687 -0.002172
v 0.025089 0.228783 -0.002172
v 0.025089 0.174880 -0.002172
v 0.025089 0.120976 -0.002172
v 0.025089 0.067072 -0.002172
v 0.025089 0.013168 -0.002172
v 0.025089 -0.040735 -0.002172
v 0.025089 -0.094639 -0.002172
v 0.025089 -0.148543 -0.002172
v 0.025089 -0.202447 -0.002172
v 0.025089 -0.256350 -0.002172
v 0.025089 -0.310254 -0.002172
v 0.025089 -0.364158 -0.002172
v 0.025089 0.336591 0.002172
v 0.025089 0.282687 0.002172
v 0.025089 0.228783 0.002172
v 0.025089 0.174880 0.002172
v 0.025089 0.120976 0.002172
v 0.025089 0.067072 0.002172
v 0.025089 0.013168 0.002172
v 0.025089 -0.040735 0.002172
v 0.025089 -0.094639 0.002172
v 0.025089 -0.148543 0.002172
v 0.025089 -0.202447 0.002172
v 0.025089 -0.256350 0.002172
v 0.025089 -0.310254 0.002172
v 0.025089 -0.364158 0.002172
vn -1.0000 -0.0000 -0.0000
vn -0.0000 -0.0000 -1.0000
vn 1.0000 -0.0000 -0.0000
vn -0.0000 -0.0000 1.0000
vn -0.0000 -1.0000 -0.0000
vn -0.0000 1.0000 -0.0000
vn -0.9904 0.1384 -0.0000
vn -0.9852 0.1715 -0.0000
vn 0.4284 -0.9036 -0.0000
vn -0.9764 0.2161 -0.0000
vt 0.072695 0.974536
vt 0.114750 0.009972
vt 0.072695 0.009972
vt 0.114750 0.974536
vt 0.050911 0.068273
vt 0.933690 0.012643
vt 0.050911 0.012643
vt 0.933690 0.068273
vt 0.050911 0.987183
vt 0.933690 0.931552
vt 0.050911 0.931552
vt 0.933690 0.987183
vt 0.875317 0.974536
vt 0.917372 0.009972
vt 0.875317 0.009972
vt 0.917372 0.974536
vt 0.714343 0.285657
vt 0.285657 0.714343
vt 0.285657 0.285657
vt 0.495564 0.728952
vt 0.527099 0.694695
vt 0.495564 0.669574
vt 0.494642 0.940277
vt 0.489959 0.881624
vt 0.494642 0.881624
vt 0.494642 0.060483
vt 0.489959 0.060483
vt 0.489959 0.940277
vt 0.527099 0.249360
vt 0.495564 0.215103
vt 0.527099 0.215103
vt 0.527099 0.283616
vt 0.508818 0.266527
vt 0.508818 0.335040
vt 0.495564 0.258496
vt 0.527099 0.352130
vt 0.527099 0.317873
vt 0.508818 0.403553
vt 0.495564 0.327009
vt 0.527099 0.420643
vt 0.527099 0.386386
vt 0.508818 0.472066
vt 0.495564 0.395522
vt 0.527099 0.489156
vt 0.527099 0.454899
vt 0.508818 0.540580
vt 0.495564 0.464035
vt 0.527099 0.557669
vt 0.527099 0.523412
vt 0.508818 0.609093
vt 0.495564 0.532548
vt 0.527099 0.626182
vt 0.527099 0.591925
vt 0.508818 0.677606
vt 0.495564 0.601061
vt 0.527099 0.660438
vt 0.494642 0.119136
vt 0.494642 0.177789
vt 0.489959 0.119136
vt 0.494642 0.705665
vt 0.489959 0.647012
vt 0.494642 0.647012
vt 0.494642 0.764318
vt 0.489959 0.705665
vt 0.494642 0.822971
vt 0.489959 0.764318
vt 0.489959 0.822971
vt 0.508818 0.403553
vt 0.495564 0.327009
vt 0.495564 0.395522
vt 0.495564 0.601061
vt 0.489959 0.134778
vt 0.494642 0.148530
vt 0.489959 0.148530
vt 0.489959 0.252084
vt 0.494642 0.265835
vt 0.489959 0.265835
vt 0.489959 0.369390
vt 0.494642 0.383141
vt 0.489959 0.383141
vt 0.489959 0.486695
vt 0.494642 0.500447
vt 0.489959 0.500447
vt 0.714343 0.714343
vt 0.527099 0.728952
vt 0.489959 0.177789
vt 0.494642 0.134778
vt 0.494642 0.252084
vt 0.494642 0.369390
vt 0.494642 0.486695
s 0
usemtl Material.001
f 2/1/1 3/2/1 1/3/1
f 4/4/2 7/2/2 3/2/2
f 8/4/3 5/3/3 7/2/3
f 6/1/4 1/3/4 5/3/4
f 7/2/5 1/3/5 3/2/5
f 4/4/6 6/1/6 8/4/6
f 10/5/1 11/6/1 9/7/1
f 12/8/2 15/6/2 11/6/2
f 16/8/3 13/7/3 15/6/3
f 14/5/4 9/7/4 13/7/4
f 15/6/5 9/7/5 11/6/5
f 12/8/6 14/5/6 16/8/6
f 18/9/1 19/10/1 17/11/1
f 20/12/2 23/10/2 19/10/2
f 24/12/3 21/11/3 23/10/3
f 22/9/4 17/11/4 21/11/4
f 23/10/5 17/11/5 19/10/5
f 20/12/6 22/9/6 24/12/6
f 26/13/1 27/14/1 25/15/1
f 28/16/2 31/14/2 27/14/2
f 32/16/3 29/15/3 31/14/3
f 30/13/4 25/15/4 29/15/4
f 31/14/5 25/15/5 27/14/5
f 28/16/6 30/13/6 32/16/6
f 34/17/7 55/18/7 54/19/7
f 36/20/2 69/21/2 55/22/2
f 40/23/3 83/24/3 69/25/3
f 83/21/4 34/20/4 54/22/4
f 39/26/5 33/27/5 35/26/5
f 36/23/6 38/28/6 40/23/6
f 96/29/4 33/30/4 37/31/4
f 95/32/4 41/33/4 96/29/4
f 95/32/4 43/34/4 42/35/4
f 93/36/4 43/34/4 94/37/4
f 93/36/4 45/38/4 44/39/4
f 91/40/4 45/38/4 92/41/4
f 91/40/4 47/42/4 46/43/4
f 89/44/4 47/42/4 90/45/4
f 89/44/4 49/46/4 48/47/4
f 87/48/4 49/46/4 88/49/4
f 87/48/4 51/50/4 50/51/4
f 85/52/4 51/50/4 86/53/4
f 85/52/4 53/54/4 52/55/4
f 83/21/4 53/54/4 84/56/4
f 82/57/3 37/27/3 39/26/3
f 81/58/3 96/59/3 82/57/3
f 80/17/3 95/18/3 81/19/3
f 79/17/3 94/18/3 80/19/3
f 78/17/3 93/18/3 79/19/3
f 77/17/3 92/18/3 78/19/3
f 76/17/3 91/18/3 77/19/3
f 75/17/3 90/18/3 76/19/3
f 74/49/3 89/44/3 75/44/3
f 73/17/3 88/18/3 74/19/3
f 72/60/3 87/61/3 73/62/3
f 71/63/3 86/64/3 72/60/3
f 70/65/3 85/66/3 71/63/3
f 69/25/3 84/67/3 70/65/3
f 35/30/2 82/29/2 39/31/2
f 68/33/2 81/32/2 82/29/2
f 66/34/2 81/32/2 67/35/2
f 66/34/2 79/36/2 80/37/2
f 64/68/2 79/36/2 65/69/2
f 64/68/2 77/40/2 78/41/2
f 62/42/2 77/40/2 63/70/2
f 62/42/2 75/44/2 76/45/2
f 60/46/2 75/44/2 61/47/2
f 60/46/2 73/48/2 74/49/2
f 58/50/2 73/48/2 59/51/2
f 58/50/2 71/52/2 72/53/2
f 56/54/2 71/52/2 57/71/2
f 56/54/2 69/21/2 70/56/2
f 41/33/8 35/30/8 33/30/8
f 42/72/9 68/73/9 41/74/9
f 42/35/10 66/34/10 67/35/10
f 44/75/9 66/76/9 43/77/9
f 44/39/10 64/68/10 65/69/10
f 46/78/9 64/79/9 45/80/9
f 46/43/10 62/42/10 63/70/10
f 48/81/9 62/82/9 47/83/9
f 48/47/10 60/46/10 61/47/10
f 50/17/9 60/18/9 49/19/9
f 50/51/10 58/50/10 59/51/10
f 52/55/9 58/50/9 51/50/9
f 52/55/10 56/54/10 57/71/10
f 54/17/9 56/18/9 53/19/9
f 2/1/1 4/4/1 3/2/1
f 4/4/2 8/4/2 7/2/2
f 8/4/3 6/1/3 5/3/3
f 6/1/4 2/1/4 1/3/4
f 7/2/5 5/3/5 1/3/5
f 4/4/6 2/1/6 6/1/6
f 10/5/1 12/8/1 11/6/1
f 12/8/2 16/8/2 15/6/2
f 16/8/3 14/5/3 13/7/3
f 14/5/4 10/5/4 9/7/4
f 15/6/5 13/7/5 9/7/5
f 12/8/6 10/5/6 14/5/6
f 18/9/1 20/12/1 19/10/1
f 20/12/2 24/12/2 23/10/2
f 24/12/3 22/9/3 21/11/3
f 22/9/4 18/9/4 17/11/4
f 23/10/5 21/11/5 17/11/5
f 20/12/6 18/9/6 22/9/6
f 26/13/1 28/16/1 27/14/1
f 28/16/2 32/16/2 31/14/2
f 32/16/3 30/13/3 29/15/3
f 30/13/4 26/13/4 25/15/4
f 31/14/5 29/15/5 25/15/5
f 28/16/6 26/13/6 30/13/6
f 34/17/7 36/84/7 55/18/7
f 36/20/2 40/85/2 69/21/2
f 40/23/3 38/28/3 83/24/3
f 83/21/4 38/85/4 34/20/4
f 39/26/5 37/27/5 33/27/5
f 36/23/6 34/28/6 38/28/6
f 96/29/4 41/33/4 33/30/4
f 95/32/4 42/35/4 41/33/4
f 95/32/4 94/37/4 43/34/4
f 93/36/4 44/39/4 43/34/4
f 93/36/4 92/41/4 45/38/4
f 91/40/4 46/43/4 45/38/4
f 91/40/4 90/45/4 47/42/4
f 89/44/4 48/47/4 47/42/4
f 89/44/4 88/49/4 49/46/4
f 87/48/4 50/51/4 49/46/4
f 87/48/4 86/53/4 51/50/4
f 85/52/4 52/55/4 51/50/4
f 85/52/4 84/56/4 53/54/4
f 83/21/4 54/22/4 53/54/4
f 82/57/3 96/59/3 37/27/3
f 81/58/3 95/86/3 96/59/3
f 80/17/3 94/84/3 95/18/3
f 79/17/3 93/84/3 94/18/3
f 78/17/3 92/84/3 93/18/3
f 77/17/3 91/84/3 92/18/3
f 76/17/3 90/84/3 91/18/3
f 75/17/3 89/84/3 90/18/3
f 74/49/3 88/49/3 89/44/3
f 73/17/3 87/84/3 88/18/3
f 72/60/3 86/64/3 87/61/3
f 71/63/3 85/66/3 86/64/3
f 70/65/3 84/67/3 85/66/3
f 69/25/3 83/24/3 84/67/3
f 35/30/2 68/33/2 82/29/2
f 68/33/2 67/35/2 81/32/2
f 66/34/2 80/37/2 81/32/2
f 66/34/2 65/69/2 79/36/2
f 64/68/2 78/41/2 79/36/2
f 64/68/2 63/70/2 77/40/2
f 62/42/2 76/45/2 77/40/2
f 62/42/2 61/47/2 75/44/2
f 60/46/2 74/49/2 75/44/2
f 60/46/2 59/51/2 73/48/2
f 58/50/2 72/53/2 73/48/2
f 58/50/2 57/71/2 71/52/2
f 56/54/2 70/56/2 71/52/2
f 56/54/2 55/22/2 69/21/2
f 41/33/8 68/33/8 35/30/8
f 42/72/9 67/87/9 68/73/9
f 42/35/10 43/34/10 66/34/10
f 44/75/9 65/88/9 66/76/9
f 44/39/10 45/38/10 64/68/10
f 46/78/9 63/89/9 64/79/9
f 46/43/10 47/42/10 62/42/10
f 48/81/9 61/90/9 62/82/9
f 48/47/10 49/46/10 60/46/10
f 50/17/9 59/84/9 60/18/9
f 50/51/10 51/50/10 58/50/10
f 52/55/9 57/71/9 58/50/9
f 52/55/10 53/54/10 56/54/10
f 54/17/9 55/84/9 56/18/9
o arm
v 0.061839 0.041336 -0.064247
v 0.045267 -0.041394 -0.047030
v 0.061839 0.041336 0.064247
v 0.045267 -0.041394 0.047030
v -0.061839 0.041336 -0.064247
v -0.045267 -0.041394 -0.047030
v -0.061839 0.041336 0.064247
v -0.045267 -0.041394 0.047030
v 0.061839 -0.041394 -0.064247
v 0.061839 -0.041394 0.064247
v -0.061839 -0.041394 0.064247
v -0.061839 -0.041394 -0.064247
v 0.068217 -0.442051 -0.070874
v 0.068217 -0.442051 0.070874
v -0.068217 -0.442051 0.070874
v -0.068217 -0.442051 -0.070874
v 0.045267 -0.441822 -0.047030
v 0.045267 -0.441822 0.047030
v -0.045267 -0.441822 0.047030
v -0.045267 -0.441822 -0.047030
v 0.068217 -0.518063 -0.070874
v 0.068217 -0.518063 0.070874
v -0.068217 -0.518063 0.070874
v -0.068217 -0.518063 -0.070874
vn 1.0000 -0.0000 -0.0000
vn -0.0000 -0.0000 1.0000
vn -1.0000 -0.0000 -0.0000
vn -0.0000 -0.0000 -1.0000
vn -0.0000 1.0000 -0.0000
vn -0.0000 -1.0000 -0.0000
vn 0.0100 0.9999 -0.0000
vn -0.0000 1.0000 0.0096
vn -0.0100 0.9999 -0.0000
vn -0.0000 1.0000 -0.0096
vn 0.0100 1.0000 -0.0000
vn -0.0100 1.0000 -0.0000
vt 0.422571 0.524918
vt 0.471783 0.574130
vt 0.422571 0.574130
vt 0.471783 0.524918
vt 0.429165 0.524918
vt 0.429165 0.286723
vt 0.465189 0.524918
vt 0.474321 0.286587
vt 0.420033 0.241372
vt 0.420033 0.286587
vt 0.465189 0.286723
vt 0.474321 0.241372
s 0
usemtl Material.001
f 105/91/11 97/93/11 99/92/11
f 106/94/12 99/92/12 103/92/12
f 107/94/13 103/92/13 101/93/13
f 108/91/14 101/93/14 97/93/14
f 103/92/15 99/92/15 97/93/15
f 102/95/14 98/95/14 113/96/14
f 100/97/16 98/95/16 105/91/16
f 104/97/16 100/97/16 106/94/16
f 102/95/16 104/97/16 107/94/16
f 98/95/16 102/95/16 108/91/16
f 111/98/13 112/100/13 120/99/13
f 100/97/12 104/97/12 115/101/12
f 104/97/13 102/95/13 116/96/13
f 98/95/11 100/97/11 114/101/11
f 110/98/17 109/100/17 113/96/17
f 111/98/18 110/98/18 114/101/18
f 112/100/19 111/98/19 115/101/19
f 109/100/20 112/100/20 116/96/20
f 118/102/16 119/102/16 120/99/16
f 109/100/11 110/98/11 118/102/11
f 112/100/14 109/100/14 117/99/14
f 110/98/12 111/98/12 119/102/12
f 105/91/11 99/92/11 106/94/11
f 106/94/12 103/92/12 107/94/12
f 107/94/13 101/93/13 108/91/13
f 108/91/14 97/93/14 105/91/14
f 103/92/15 97/93/15 101/93/15
f 102/95/14 113/96/14 116/96/14
f 100/97/16 105/91/16 106/94/16
f 104/97/16 106/94/16 107/94/16
f 102/95/16 107/94/16 108/91/16
f 98/95/16 108/91/16 105/91/16
f 111/98/13 120/99/13 119/102/13
f 100/97/12 115/101/12 114/101/12
f 104/97/13 116/96/13 115/101/13
f 98/95/11 114/101/11 113/96/11
f 110/98/21 113/96/21 114/101/21
f 111/98/18 114/101/18 115/101/18
f 112/100/22 115/101/22 116/96/22
f 109/100/20 116/96/20 113/96/20
f 118/102/16 120/99/16 117/99/16
f 109/100/11 118/102/11 117/99/11
f 112/100/14 117/99/14 120/99/14
f 110/98/12 119/102/12 118/102/12
