# Blender 4.2.3 LTS
# www.blender.org
mtllib rod_new.mtl
o Cube
v 0.091486 0.091486 -0.499583
v 0.091486 -0.091486 -0.499583
v 0.091486 0.091486 0.499583
v 0.091486 -0.091486 0.499583
v -0.091486 0.091486 -0.499583
v -0.091486 -0.091486 -0.499583
v -0.091486 0.091486 0.499583
v -0.091486 -0.091486 0.499583
v -0.054981 -0.054981 0.000000
v 0.054981 -0.054981 0.000000
v -0.054981 0.054981 0.000000
v 0.054981 0.054981 0.000000
v -0.054981 0.054981 -0.234780
v 0.054981 0.054981 -0.234780
v -0.054981 -0.054981 -0.234780
v 0.054981 -0.054981 -0.234780
v -0.054981 -0.054981 0.234780
v 0.054981 -0.054981 0.234780
v -0.054981 0.054981 0.234780
v 0.054981 0.054981 0.234780
v -0.045743 -0.091486 0.000000
v -0.045743 -0.091486 -0.390664
v -0.045743 -0.091486 0.390664
v -0.045743 0.091486 0.000000
v -0.045743 0.091486 -0.390664
v -0.045743 0.091486 0.390664
v 0.045743 -0.091486 0.000000
v -0.091486 0.045743 0.000000
v 0.045743 -0.091486 -0.390664
v -0.091486 0.045743 -0.390664
v -0.091486 0.045743 0.390664
v 0.045743 -0.091486 0.390664
v 0.045743 0.091486 0.000000
v 0.045743 0.091486 -0.390664
v -0.091486 -0.045743 0.000000
v 0.045743 0.091486 0.390664
v -0.091486 -0.045743 -0.390664
v -0.091486 -0.045743 0.390664
v 0.091486 0.045743 0.000000
v 0.091486 0.045743 -0.390664
v 0.091486 0.045743 0.390664
v 0.091486 -0.045743 0.000000
v 0.091486 -0.045743 -0.390664
v 0.091486 -0.045743 0.390664
vn -0.0000 -0.0000 1.0000
vn 0.4318 -0.8836 -0.1813
vn -0.0000 1.0000 -0.0000
vn 1.0000 -0.0000 -0.0000
vn 0.9694 0.2453 -0.0000
vn -0.2453 0.9694 -0.0000
vn -0.9694 0.2453 -0.0000
vn -1.0000 -0.0000 -0.0000
vn 0.8836 -0.4318 0.1813
vn 0.4318 0.8836 -0.1813
vn 0.9694 -0.2453 -0.0000
vn -0.4318 -0.8836 -0.1813
vn -0.9694 -0.2453 -0.0000
vn -0.4318 -0.8836 0.1813
vn 0.2453 0.9694 -0.0000
vn 0.8836 0.4318 0.1813
vn -0.0000 -0.0000 -1.0000
vn 0.2453 -0.9694 -0.0000
vn -0.0000 -1.0000 -0.0000
vn -0.8836 -0.4318 0.1813
vn -0.2453 -0.9694 -0.0000
vn -0.8836 -0.4318 -0.1813
vn -0.4318 0.8836 -0.1813
vn -0.8836 0.4318 0.1813
vn -0.4318 0.8836 0.1813
vn -0.8836 0.4318 -0.1813
vn 0.8836 0.4318 -0.1813
vn 0.4318 0.8836 0.1813
vn 0.4318 -0.8836 0.1813
vn 0.8836 -0.4318 -0.1813
vt 1.000000 1.000000
vt 0.000000 0.000000
vt 1.000000 0.000000
vt 0.070450 0.979412
vt 0.500786 0.738952
vt 0.070450 0.738952
vt 0.493839 0.266230
vt 0.926631 0.026542
vt 0.942336 0.634921
vt 0.278198 0.476191
vt 0.056818 0.634921
vt 0.493839 0.505918
vt 0.926631 0.745606
vt 0.926631 0.505918
vt 0.942336 0.158730
vt 0.720956 0.317460
vt 0.720956 0.158730
vt 0.926631 0.266230
vt 0.942336 0.476191
vt 0.720956 0.476191
vt 0.493839 0.745606
vt 0.278198 0.317460
vt 0.056818 0.476191
vt 0.278198 0.158730
vt 0.926631 0.985294
vt 0.000000 1.000000
vt 0.500786 0.498492
vt 0.070450 0.498492
vt 0.070450 0.258033
vt 0.070450 0.017573
vt 0.500786 0.258033
vt 0.942336 0.317460
vt 0.056818 0.158730
vt 0.942336 0.000000
vt 0.056818 0.000000
vt 0.056818 0.317460
s 0
usemtl Material
f 4/1/1 7/2/1 8/3/1
f 4/4/2 32/5/2 18/6/2
f 34/7/3 5/8/3 25/7/3
f 1/9/4 43/10/4 2/11/4
f 33/12/5 20/13/5 12/14/5
f 19/15/6 28/16/6 31/17/6
f 13/18/7 24/12/7 25/7/7
f 34/7/3 1/8/3 5/8/3
f 28/16/6 13/19/6 30/20/6
f 24/12/7 19/13/7 26/21/7
f 28/16/8 37/10/8 35/22/8
f 2/11/9 43/10/9 16/23/9
f 39/16/4 44/24/4 42/22/4
f 33/12/5 14/18/5 34/7/5
f 38/24/8 31/17/8 28/16/8
f 37/10/8 5/9/8 6/11/8
f 36/21/10 3/25/10 20/13/10
f 4/1/1 3/26/1 7/2/1
f 18/6/11 27/27/11 10/28/11
f 23/5/12 8/4/12 17/6/12
f 15/29/13 21/27/13 9/28/13
f 6/30/14 22/31/14 15/29/14
f 21/27/13 17/6/13 9/28/13
f 39/16/15 14/19/15 12/32/15
f 40/20/16 1/9/16 14/19/16
f 39/16/15 20/15/15 41/17/15
f 5/26/17 2/3/17 6/1/17
f 18/33/18 42/22/18 44/24/18
f 1/9/4 40/20/4 43/10/4
f 24/12/3 36/21/3 33/12/3
f 16/29/11 27/27/11 29/31/11
f 23/5/19 4/4/19 8/4/19
f 44/24/4 3/34/4 4/35/4
f 16/23/18 42/22/18 10/36/18
f 37/10/20 6/11/20 15/23/20
f 29/31/19 6/30/19 2/30/19
f 17/33/21 35/22/21 9/36/21
f 3/25/3 26/21/3 7/25/3
f 35/22/21 15/23/21 9/36/21
f 8/35/22 38/24/22 17/33/22
f 26/21/23 19/13/23 7/25/23
f 30/20/24 13/19/24 5/9/24
f 33/12/5 36/21/5 20/13/5
f 19/15/6 11/32/6 28/16/6
f 13/18/7 11/14/7 24/12/7
f 5/8/25 13/18/25 25/7/25
f 28/16/8 30/20/8 37/10/8
f 28/16/6 11/32/6 13/19/6
f 7/34/26 19/15/26 31/17/26
f 24/12/7 11/14/7 19/13/7
f 33/12/5 12/14/5 14/18/5
f 35/22/8 38/24/8 28/16/8
f 42/22/4 43/10/4 40/20/4
f 7/34/8 38/24/8 8/35/8
f 18/6/11 32/5/11 27/27/11
f 41/17/27 20/15/27 3/34/27
f 15/29/13 22/31/13 21/27/13
f 21/27/13 23/5/13 17/6/13
f 39/16/15 40/20/15 14/19/15
f 39/16/15 12/32/15 20/15/15
f 34/7/28 14/18/28 1/8/28
f 18/33/18 10/36/18 42/22/18
f 39/16/4 41/17/4 44/24/4
f 16/29/11 10/28/11 27/27/11
f 2/30/29 16/29/29 29/31/29
f 16/23/18 43/10/18 42/22/18
f 4/35/30 18/33/30 44/24/30
f 17/33/21 38/24/21 35/22/21
f 35/22/21 37/10/21 15/23/21
f 27/27/19 23/5/19 21/27/19
f 42/22/4 40/20/4 39/16/4
f 37/10/8 30/20/8 5/9/8
f 5/26/17 1/2/17 2/3/17
f 34/7/3 25/7/3 24/12/3
f 24/12/3 26/21/3 36/21/3
f 33/12/3 34/7/3 24/12/3
f 23/5/19 32/5/19 4/4/19
f 44/24/4 41/17/4 3/34/4
f 29/31/19 22/31/19 6/30/19
f 3/25/3 36/21/3 26/21/3
f 7/34/8 31/17/8 38/24/8
f 21/27/19 22/31/19 29/31/19
f 27/27/19 32/5/19 23/5/19
f 21/27/19 29/31/19 27/27/19
