# Blender 4.2.3 LTS
# www.blender.org
mtllib mechanical_sieve.mtl
o base
v 0.969190 0.479627 0.008272
v 0.969190 0.538279 0.008272
v 0.969190 0.479627 0.996354
v 0.969190 0.538279 0.996354
v 0.996511 0.479627 0.008272
v 0.996511 0.538279 0.008272
v 0.996511 0.479627 0.996354
v 0.996511 0.538279 0.996354
v 0.967492 0.478858 0.032508
v 1.000000 0.413907 0.000000
v 0.032508 0.478858 0.032508
v 0.000000 0.413907 0.000000
v 0.000000 0.413907 0.128707
v 0.967492 0.478858 0.096198
v 0.032508 0.478858 0.096198
v 1.000000 0.413907 0.128707
v 0.000000 0.478858 0.128707
v 0.000000 0.478858 0.000000
v 1.000000 0.478858 0.000000
v 1.000000 0.478858 0.128707
v 0.969578 0.577786 0.032806
v 0.034594 0.577786 0.032806
v 0.969578 0.577786 0.096496
v 0.034594 0.577786 0.096496
v 0.002086 0.577786 0.129004
v 0.002086 0.577786 0.000298
v 1.002086 0.577786 0.000298
v 1.002086 0.577786 0.129004
v 0.002086 0.577786 0.129004
v 0.002086 0.577786 0.000298
v 1.002086 0.577786 0.000298
v 1.002086 0.577786 0.129004
v 0.002203 0.604954 0.129538
v 0.002203 0.604954 0.000831
v 1.002203 0.604954 0.000831
v 1.002203 0.604954 0.129538
v 0.967492 0.478858 0.967492
v 1.000000 0.413907 1.000000
v 0.032508 0.478858 0.967492
v 0.000000 0.413907 1.000000
v 0.000000 0.413907 0.871293
v 0.967492 0.478858 0.903802
v 0.032508 0.478858 0.903802
v 1.000000 0.413907 0.871293
v 0.000000 0.478858 0.871293
v 0.000000 0.478858 1.000000
v 1.000000 0.478858 1.000000
v 1.000000 0.478858 0.871293
v 0.969578 0.577786 0.967194
v 0.034594 0.577786 0.967194
v 0.969578 0.577786 0.903504
v 0.034594 0.577786 0.903504
v 0.002086 0.577786 0.870996
v 0.002086 0.577786 0.999702
v 1.002086 0.577786 0.999702
v 1.002086 0.577786 0.870996
v 0.002086 0.577786 0.870996
v 0.002086 0.577786 0.999702
v 1.002086 0.577786 0.999702
v 1.002086 0.577786 0.870996
v 0.002203 0.604954 0.870462
v 0.002203 0.604954 0.999169
v 1.002203 0.604954 0.999169
v 1.002203 0.604954 0.870462
v 0.884527 0.411439 0.003631
v 0.884527 0.349501 0.003631
v 0.884527 0.411439 0.996369
v 0.884527 0.349501 0.996369
v 0.981951 0.411439 0.003631
v 0.981951 0.349501 0.003631
v 0.981951 0.411439 0.996369
v 0.981951 0.349501 0.996369
v 0.981541 0.005565 0.983738
v 0.981541 0.348705 0.983738
v 0.884444 0.005565 0.983738
v 0.884444 0.348705 0.983738
v 0.981541 0.005565 0.886642
v 0.981541 0.348705 0.886642
v 0.884444 0.005565 0.886642
v 0.884444 0.348705 0.886642
v 0.115556 0.005565 0.983738
v 0.115556 0.418573 0.983738
v 0.018459 0.005565 0.983738
v 0.018459 0.418573 0.983738
v 0.115556 0.005565 0.886642
v 0.115556 0.418573 0.886642
v 0.018459 0.005565 0.886642
v 0.018459 0.418573 0.886642
v 0.115556 0.005565 0.113358
v 0.115556 0.418573 0.113358
v 0.018459 0.005565 0.113358
v 0.018459 0.418573 0.113358
v 0.115556 0.005565 0.016261
v 0.115556 0.418573 0.016261
v 0.018459 0.005565 0.016261
v 0.018459 0.418573 0.016261
v 0.981541 0.005565 0.113358
v 0.981541 0.348705 0.113358
v 0.884444 0.005565 0.113358
v 0.884444 0.348705 0.113358
v 0.981541 0.005565 0.016261
v 0.981541 0.348705 0.016261
v 0.884444 0.005565 0.016261
v 0.884444 0.348705 0.016261
v 0.020356 0.154578 0.106938
v 0.020356 0.105531 0.106938
v 0.020356 0.154578 0.893062
v 0.020356 0.105531 0.893062
v 0.097504 0.154578 0.106938
v 0.097504 0.105531 0.106938
v 0.097504 0.154578 0.893062
v 0.097504 0.105531 0.893062
vn 1.0000 -0.0000 -0.0000
vn -0.0000 -0.0000 -1.0000
vn -1.0000 -0.0000 -0.0000
vn -0.0000 -0.0000 1.0000
vn -0.0000 1.0000 -0.0000
vn -0.0000 -1.0000 -0.0000
vn -0.0000 -0.0030 1.0000
vn -0.9998 0.0211 -0.0000
vn -0.0000 0.0030 -1.0000
vn 0.9998 -0.0211 -0.0000
vn -0.0000 -0.0196 0.9998
vn 1.0000 -0.0043 -0.0000
vn -0.0000 0.0030 1.0000
vn -0.0000 -0.0030 -1.0000
vn -0.0000 0.0196 0.9998
vn -1.0000 0.0043 -0.0000
vt 0.125946 0.125946
vt 0.874054 0.125946
vt 0.874054 0.874054
vt 0.125946 0.874054
vt 0.048938 0.994251
vt 0.001843 0.994251
vt 0.001843 0.947155
vt 0.048938 0.947155
vt 0.000000 0.000000
vt 1.000000 0.000000
vt 1.000000 1.000000
vt 0.000000 1.000000
vt 1.004497 0.001679
vt 0.007643 0.001679
vt 0.007643 0.129143
vt 1.004497 0.129143
vt -0.000932 -0.000932
vt 1.000932 -0.000932
vt 1.000932 0.121826
vt -0.000932 0.121826
vt 1.000000 0.126022
vt 0.000000 0.126022
vt 0.000000 0.868369
vt 1.000000 0.868369
s 0
usemtl Material
f 1/1/1 2/2/1 4/3/1 3/4/1
f 3/1/2 4/2/2 8/3/2 7/4/2
f 7/1/3 8/2/3 6/3/3 5/4/3
f 5/1/4 6/2/4 2/3/4 1/4/4
f 3/1/5 7/2/5 5/3/5 1/4/5
f 8/1/6 4/2/6 2/3/6 6/4/6
f 13/5/3 17/6/3 18/7/3 12/8/3
f 12/9/2 18/10/2 19/11/2 10/12/2
f 10/5/1 19/6/1 20/7/1 16/8/1
f 12/9/6 10/10/6 16/11/6 13/12/6
f 16/9/4 20/10/4 17/11/4 13/12/4
f 15/13/5 11/14/5 18/15/5 17/16/5
f 11/17/5 9/18/5 19/19/5 18/20/5
f 9/9/5 14/10/5 20/21/5 19/22/5
f 14/23/5 15/24/5 17/11/5 20/12/5
f 23/1/7 24/2/7 15/3/7 14/4/7
f 26/1/5 25/2/5 24/3/5 22/4/5
f 11/1/8 15/2/8 24/3/8 22/4/8
f 23/1/6 28/2/6 25/3/6 24/4/6
f 27/1/5 26/2/5 22/3/5 21/4/5
f 9/1/9 11/2/9 22/3/9 21/4/9
f 23/1/5 21/2/5 22/3/5 24/4/5
f 9/1/10 21/2/10 23/3/10 14/4/10
f 23/1/6 21/2/6 27/3/6 28/4/6
f 25/1/5 28/2/5 32/3/5 29/4/5
f 26/1/5 27/2/5 31/3/5 30/4/5
f 28/1/5 27/2/5 31/3/5 32/4/5
f 25/1/5 26/2/5 30/3/5 29/4/5
f 30/1/11 31/2/11 35/3/11 34/4/11
f 32/1/12 31/2/12 35/3/12 36/4/12
f 29/1/11 32/2/11 36/3/11 33/4/11
f 29/1/12 30/2/12 34/3/12 33/4/12
f 34/1/6 35/2/6 36/3/6 33/4/6
f 41/5/1 45/6/1 46/7/1 40/8/1
f 40/9/2 46/10/2 47/11/2 38/12/2
f 38/5/3 47/6/3 48/7/3 44/8/3
f 40/9/5 38/10/5 44/11/5 41/12/5
f 44/9/4 48/10/4 45/11/4 41/12/4
f 43/9/6 39/10/6 46/21/6 45/22/6
f 39/17/6 37/18/6 47/19/6 46/20/6
f 37/9/6 42/10/6 48/21/6 47/22/6
f 42/23/6 43/24/6 45/11/6 48/12/6
f 51/1/13 52/2/13 43/3/13 42/4/13
f 54/1/6 53/2/6 52/3/6 50/4/6
f 39/1/10 43/2/10 52/3/10 50/4/10
f 51/1/5 56/2/5 53/3/5 52/4/5
f 55/1/6 54/2/6 50/3/6 49/4/6
f 37/1/14 39/2/14 50/3/14 49/4/14
f 51/1/6 49/2/6 50/3/6 52/4/6
f 37/1/8 49/2/8 51/3/8 42/4/8
f 51/1/5 49/2/5 55/3/5 56/4/5
f 53/1/5 56/2/5 60/3/5 57/4/5
f 54/1/5 55/2/5 59/3/5 58/4/5
f 56/1/5 55/2/5 59/3/5 60/4/5
f 53/1/5 54/2/5 58/3/5 57/4/5
f 58/1/15 59/2/15 63/3/15 62/4/15
f 60/1/16 59/2/16 63/3/16 64/4/16
f 57/1/15 60/2/15 64/3/15 61/4/15
f 57/1/16 58/2/16 62/3/16 61/4/16
f 62/1/5 63/2/5 64/3/5 61/4/5
f 65/1/3 66/2/3 68/3/3 67/4/3
f 67/1/4 68/2/4 72/3/4 71/4/4
f 71/1/1 72/2/1 70/3/1 69/4/1
f 69/1/2 70/2/2 66/3/2 65/4/2
f 67/1/5 71/2/5 69/3/5 65/4/5
f 72/1/6 68/2/6 66/3/6 70/4/6
f 73/1/4 74/2/4 76/3/4 75/4/4
f 75/1/3 76/2/3 80/3/3 79/4/3
f 79/1/2 80/2/2 78/3/2 77/4/2
f 77/1/1 78/2/1 74/3/1 73/4/1
f 75/1/6 79/2/6 77/3/6 73/4/6
f 80/1/5 76/2/5 74/3/5 78/4/5
f 81/1/4 82/2/4 84/3/4 83/4/4
f 83/1/3 84/2/3 88/3/3 87/4/3
f 87/1/2 88/2/2 86/3/2 85/4/2
f 85/1/1 86/2/1 82/3/1 81/4/1
f 83/1/6 87/2/6 85/3/6 81/4/6
f 88/1/5 84/2/5 82/3/5 86/4/5
f 89/1/4 90/2/4 92/3/4 91/4/4
f 91/1/3 92/2/3 96/3/3 95/4/3
f 95/1/2 96/2/2 94/3/2 93/4/2
f 93/1/1 94/2/1 90/3/1 89/4/1
f 91/1/6 95/2/6 93/3/6 89/4/6
f 96/1/5 92/2/5 90/3/5 94/4/5
f 97/1/4 98/2/4 100/3/4 99/4/4
f 99/1/3 100/2/3 104/3/3 103/4/3
f 103/1/2 104/2/2 102/3/2 101/4/2
f 101/1/1 102/2/1 98/3/1 97/4/1
f 99/1/6 103/2/6 101/3/6 97/4/6
f 104/1/5 100/2/5 98/3/5 102/4/5
f 105/1/3 106/2/3 108/3/3 107/4/3
f 107/1/4 108/2/4 112/3/4 111/4/4
f 111/1/1 112/2/1 110/3/1 109/4/1
f 109/1/2 110/2/2 106/3/2 105/4/2
f 107/1/5 111/2/5 109/3/5 105/4/5
f 112/1/6 108/2/6 106/3/6 110/4/6
o arm
v -0.676345 0.069992 -0.023959
v -0.676345 -0.015377 -0.023959
v 0.061381 0.069992 -0.022315
v 0.061381 -0.015377 -0.022315
v -0.677242 0.069992 0.030510
v -0.677242 -0.015377 0.030510
v 0.060484 0.069992 0.032153
v 0.060484 -0.015377 0.032153
vn -0.0022 -0.0000 1.0000
vn -0.9999 -0.0000 -0.0165
vn 0.0022 -0.0000 -1.0000
vn 0.9999 -0.0000 0.0165
vn -0.0000 -1.0000 -0.0000
vn -0.0000 1.0000 -0.0000
vt 0.375000 0.000000
vt 0.625000 0.000000
vt 0.625000 0.250000
vt 0.375000 0.250000
vt 0.625000 0.500000
vt 0.375000 0.500000
vt 0.625000 0.750000
vt 0.375000 0.750000
vt 0.625000 1.000000
vt 0.375000 1.000000
vt 0.125000 0.500000
vt 0.125000 0.750000
vt 0.875000 0.500000
vt 0.875000 0.750000
s 0
usemtl 
f 113/25/17 114/26/17 116/27/17 115/28/17
f 115/28/18 116/27/18 120/29/18 119/30/18
f 119/30/19 120/29/19 118/31/19 117/32/19
f 117/32/20 118/31/20 114/33/20 113/34/20
f 115/35/21 119/30/21 117/32/21 113/36/21
f 120/29/22 116/37/22 114/38/22 118/31/22
o sieve.002
v 0.289043 -0.015035 -0.335627
v 0.289043 0.066934 -0.335627
v 0.289043 -0.015035 0.335627
v 0.289043 0.066934 0.335627
v -0.289043 -0.015035 -0.335627
v -0.289043 0.066934 -0.335627
v -0.289043 -0.015035 0.335627
v -0.289043 0.066934 0.335627
v 0.322025 -0.018466 0.398143
v 0.322025 -0.018466 -0.398143
v 0.322025 0.070365 -0.398143
v 0.322025 0.070365 0.398143
v -0.322025 -0.018466 0.398143
v -0.322025 0.070365 0.398143
v -0.322025 -0.018466 -0.398143
v -0.322025 0.070365 -0.398143
v -0.364905 0.057442 -0.110440
v -0.364905 -0.000490 -0.110440
v -0.364905 0.057442 0.118634
v -0.364905 -0.000490 0.118634
v -0.422837 0.057442 -0.110440
v -0.422837 -0.000490 -0.110440
v -0.422837 0.057442 0.118634
v -0.422837 -0.000490 0.118634
v -0.429265 0.061475 0.119481
v -0.429265 -0.004523 0.119481
v -0.320243 0.061475 0.118369
v -0.320243 -0.004523 0.118369
v -0.428969 0.061475 0.145690
v -0.428969 -0.004523 0.145690
v -0.319948 0.061475 0.144578
v -0.319948 -0.004523 0.144578
v -0.429265 0.061475 -0.135827
v -0.429265 -0.004523 -0.135827
v -0.320243 0.061475 -0.136938
v -0.320243 -0.004523 -0.136938
v -0.428969 0.061475 -0.109618
v -0.428969 -0.004523 -0.109618
v -0.319948 0.061475 -0.110729
v -0.319948 -0.004523 -0.110729
vn 1.0000 -0.0000 -0.0000
vn -0.0000 -0.0000 1.0000
vn -0.0000 -0.0000 -1.0000
vn -1.0000 -0.0000 -0.0000
vn -0.1035 -0.9946 -0.0000
vn -0.1035 0.9946 -0.0000
vn -0.0000 -0.9985 -0.0548
vn -0.0000 0.9985 -0.0548
vn 0.1035 -0.9946 -0.0000
vn -0.0000 -0.9985 0.0548
vn -0.0000 0.9985 0.0548
vn -0.9328 -0.3603 -0.0000
vn 0.1035 0.9946 -0.0000
vn -0.0000 -1.0000 -0.0000
vn -0.0000 1.0000 -0.0000
vn 0.0102 -0.0000 0.9999
vn -0.9999 -0.0000 0.0113
vn -0.0102 -0.0000 -0.9999
vn 0.9999 -0.0000 -0.0113
vt 0.375000 0.000000
vt 0.625000 0.000000
vt 0.625000 0.250000
vt 0.375000 0.250000
vt 0.625000 0.500000
vt 0.375000 0.500000
vt 0.375000 0.750000
vt 0.625000 0.750000
vt 0.625000 1.000000
vt 0.375000 1.000000
vt 0.361640 0.510806
vt 0.638360 0.510806
vt 0.861640 0.510806
vt 0.138360 0.510806
vt 0.138360 0.739194
vt 0.125000 0.750000
vt 0.125000 0.500000
vt 0.861640 0.739194
vt 0.875000 0.500000
vt 0.875000 0.750000
vt 0.361640 0.739194
vt 0.638360 0.739194
vt 0.000000 0.000000
s 0
usemtl 
f 130/39/23 131/40/23 132/41/23 129/42/23
f 129/42/24 132/41/24 134/43/24 133/44/24
f 135/45/25 136/46/25 131/47/25 130/48/25
f 127/49/25 128/50/25 124/51/25 123/52/25
f 133/44/26 134/43/26 136/46/26 135/45/26
f 123/52/27 121/53/27 130/54/27 129/55/27
f 122/56/28 124/51/28 132/57/28 131/58/28
f 127/49/29 123/52/29 129/55/29 133/44/29
f 124/51/30 128/50/30 134/43/30 132/57/30
f 125/59/23 126/60/23 128/50/23 127/49/23
f 125/59/31 127/49/31 133/44/31 135/45/31
f 121/53/32 125/59/32 135/45/32 130/54/32
f 126/60/33 122/56/33 131/58/33 136/46/33
f 121/53/24 122/56/24 126/60/24 125/59/24
f 130/39/34 129/42/34 124/51/34 122/56/34
f 123/61/26 124/61/26 122/61/26 121/61/26
f 128/50/35 126/60/35 136/46/35 134/43/35
f 137/39/26 138/40/26 140/41/26 139/42/26
f 139/42/25 140/41/25 144/43/25 143/44/25
f 143/44/23 144/43/23 142/46/23 141/45/23
f 141/45/24 142/46/24 138/47/24 137/48/24
f 139/55/36 143/44/36 141/45/36 137/54/36
f 144/43/37 140/57/37 138/58/37 142/46/37
usemtl 
f 145/39/38 146/40/38 148/41/38 147/42/38
f 147/42/39 148/41/39 152/43/39 151/44/39
f 151/44/40 152/43/40 150/46/40 149/45/40
f 149/45/41 150/46/41 146/47/41 145/48/41
f 147/55/36 151/44/36 149/45/36 145/54/36
f 152/43/37 148/57/37 146/58/37 150/46/37
usemtl 
f 153/39/38 154/40/38 156/41/38 155/42/38
f 155/42/39 156/41/39 160/43/39 159/44/39
f 159/44/40 160/43/40 158/46/40 157/45/40
f 157/45/41 158/46/41 154/47/41 153/48/41
f 155/55/36 159/44/36 157/45/36 153/54/36
f 160/43/37 156/57/37 154/58/37 158/46/37
o sieve.001
v -0.289356 0.000000 0.338962
v 0.289356 0.000000 0.338962
v -0.289356 0.000000 -0.338962
v 0.289356 0.000000 -0.338962
vn -0.0000 1.0000 -0.0000
vt 0.000000 0.000000
vt 1.000000 0.000000
vt 1.000000 1.000000
vt 0.000000 1.000000
s 0
f 161/62/42 162/63/42 164/64/42 163/65/42
