# Blender 4.2.3 LTS
# www.blender.org
mtllib mechanical_sieve_hopper.mtl
o sieve_hopper
v 0.898572 0.603504 0.124817
v 0.898572 0.976387 0.124817
v 0.898572 0.603504 0.004970
v 0.898572 0.976387 0.004970
v 0.987684 0.603504 0.124817
v 0.987684 0.976387 0.124817
v 0.987684 0.603504 0.004970
v 0.987684 0.976387 0.004970
v 0.015495 0.603504 0.124817
v 0.015495 0.976387 0.124817
v 0.015495 0.603504 0.004970
v 0.015495 0.976387 0.004970
v 0.104607 0.603504 0.124817
v 0.104607 0.976387 0.124817
v 0.104607 0.603504 0.004970
v 0.104607 0.976387 0.004970
v 0.898572 0.603504 0.995822
v 0.898572 0.976387 0.995822
v 0.898572 0.603504 0.875975
v 0.898572 0.976387 0.875975
v 0.987684 0.603504 0.995822
v 0.987684 0.976387 0.995822
v 0.987684 0.603504 0.875975
v 0.987684 0.976387 0.875975
v 0.015495 0.603504 0.995822
v 0.015495 0.976387 0.995822
v 0.015495 0.603504 0.875975
v 0.015495 0.976387 0.875975
v 0.104607 0.603504 0.995822
v 0.104607 0.976387 0.995822
v 0.104607 0.603504 0.875975
v 0.104607 0.976387 0.875975
v 0.524762 0.678476 0.524762
v 0.952818 1.000000 0.952818
v 0.475238 0.678476 0.524762
v 0.047182 1.000000 0.952818
v 0.524762 0.678476 0.475238
v 0.952818 1.000000 0.047182
v 0.475238 0.678476 0.475238
v 0.047182 1.000000 0.047182
v 0.000000 0.868468 1.000000
v 1.000000 0.868468 1.000000
v 0.000000 0.868468 0.000000
v 1.000000 0.868468 0.000000
v 1.000000 1.000000 1.000000
v 0.000000 1.000000 1.000000
v 0.000000 1.000000 0.000000
v 1.000000 1.000000 0.000000
v 0.524917 0.683080 0.524917
v 0.475083 0.683080 0.524917
v 0.475083 0.683080 0.475083
v 0.524917 0.683080 0.475083
v 0.952818 0.900851 0.952818
v 0.047182 0.900851 0.952818
v 0.047182 0.900851 0.047182
v 0.952818 0.900851 0.047182
vn -1.0000 -0.0000 -0.0000
vn -0.0000 -0.0000 -1.0000
vn 1.0000 -0.0000 -0.0000
vn -0.0000 -0.0000 1.0000
vn -0.0000 -1.0000 -0.0000
vn -0.0000 1.0000 -0.0000
vn -0.0000 -0.9285 0.3712
vn -0.3712 -0.9285 -0.0000
vn -0.0000 -0.9285 -0.3712
vn 0.3712 -0.9285 -0.0000
vn -0.0000 0.8912 -0.4536
vn 0.4536 0.8912 -0.0000
vn -0.0000 0.8912 0.4536
vn -0.4536 0.8912 -0.0000
vn -0.0000 0.0335 -0.9994
vn -0.9994 0.0335 -0.0000
vn 0.9994 0.0335 -0.0000
vn -0.0000 0.0335 0.9994
vt 0.139721 0.132581
vt 0.865878 0.132581
vt 0.865878 0.860784
vt 0.139721 0.860784
vt 0.015813 0.015711
vt 0.015813 0.985516
vt 0.985432 0.985516
vt 0.985432 0.015711
vt 0.939684 0.061468
vt 0.939684 0.939759
vt 0.476613 0.524628
vt 0.476613 0.476599
vt 0.524633 0.524628
vt 0.524633 0.476599
vt 0.061561 0.061468
vt 0.061561 0.939759
vt 0.124786 0.124780
vt 0.124915 0.186876
vt 0.124966 0.875283
vt 0.186705 0.875420
vt 0.875282 0.875296
vt 0.875184 0.812833
vt 0.875608 0.124925
vt 0.813730 0.124634
vt 0.490422 0.510816
vt 0.490422 0.490411
vt 0.510823 0.490411
vt 0.510823 0.510816
s 0
usemtl Material
f 1/1/1 2/2/1 4/3/1 3/4/1
f 3/1/2 4/2/2 8/3/2 7/4/2
f 7/1/3 8/2/3 6/3/3 5/4/3
f 5/1/4 6/2/4 2/3/4 1/4/4
f 3/1/5 7/2/5 5/3/5 1/4/5
f 8/1/6 4/2/6 2/3/6 6/4/6
f 9/1/1 10/2/1 12/3/1 11/4/1
f 11/1/2 12/2/2 16/3/2 15/4/2
f 15/1/3 16/2/3 14/3/3 13/4/3
f 13/1/4 14/2/4 10/3/4 9/4/4
f 11/1/5 15/2/5 13/3/5 9/4/5
f 16/1/6 12/2/6 10/3/6 14/4/6
f 17/1/1 18/2/1 20/3/1 19/4/1
f 19/1/2 20/2/2 24/3/2 23/4/2
f 23/1/3 24/2/3 22/3/3 21/4/3
f 21/1/4 22/2/4 18/3/4 17/4/4
f 19/1/5 23/2/5 21/3/5 17/4/5
f 24/1/6 20/2/6 18/3/6 22/4/6
f 25/1/1 26/2/1 28/3/1 27/4/1
f 27/1/2 28/2/2 32/3/2 31/4/2
f 31/1/3 32/2/3 30/3/3 29/4/3
f 29/1/4 30/2/4 26/3/4 25/4/4
f 27/1/5 31/2/5 29/3/5 25/4/5
f 32/1/6 28/2/6 26/3/6 30/4/6
f 42/5/4 45/5/4 46/6/4 41/6/4
f 41/6/1 46/6/1 47/7/1 43/7/1
f 43/7/2 47/7/2 48/8/2 44/8/2
f 44/8/3 48/8/3 45/5/3 42/5/3
f 38/9/4 40/10/4 55/10/4 56/9/4
f 35/11/7 33/12/7 42/5/7 41/6/7
f 39/13/8 35/11/8 41/6/8 43/7/8
f 37/14/9 39/13/9 43/7/9 44/8/9
f 33/12/10 37/14/10 44/8/10 42/5/10
f 34/15/6 36/16/6 46/6/6 45/5/6
f 36/16/6 40/10/6 47/7/6 46/6/6
f 40/10/6 38/9/6 48/8/6 47/7/6
f 38/9/6 34/15/6 45/5/6 48/8/6
f 36/16/2 34/15/2 53/15/2 54/16/2
f 34/15/1 38/9/1 56/9/1 53/15/1
f 40/10/3 36/16/3 54/16/3 55/10/3
f 49/17/11 50/18/11 54/16/11 53/15/11
f 50/19/12 51/20/12 55/10/12 54/16/12
f 51/21/13 52/22/13 56/9/13 55/10/13
f 52/23/14 49/24/14 53/15/14 56/9/14
f 35/11/15 50/25/15 49/26/15 33/12/15
f 33/12/16 49/26/16 52/27/16 37/14/16
f 39/13/17 51/28/17 50/25/17 35/11/17
f 37/14/18 52/27/18 51/28/18 39/13/18
