# Blender 4.2.3 LTS
# www.blender.org
mtllib spinning_wheel.mtl
o base
v 0.000000 0.000000 1.000000
v 0.000000 0.000000 0.000000
v 0.000000 0.062500 -0.000000
v 0.000000 0.062500 1.000000
v 1.000000 0.000000 0.000000
v 1.000000 0.062500 -0.000000
v 1.000000 0.000000 1.000000
v 1.000000 0.062500 1.000000
v 0.636724 0.034864 0.190105
v 0.636724 0.034864 0.127605
v 0.501529 0.459093 0.127605
v 0.501529 0.459093 0.190105
v 0.696165 0.054178 0.127605
v 0.560971 0.478407 0.127605
v 0.696165 0.054178 0.190105
v 0.560971 0.478407 0.190105
v 0.303835 0.054178 0.190105
v 0.303835 0.054178 0.127605
v 0.439029 0.478407 0.127605
v 0.439029 0.478407 0.190105
v 0.363276 0.034864 0.127605
v 0.498471 0.459093 0.127605
v 0.363276 0.034864 0.190105
v 0.498471 0.459093 0.190105
v 0.774911 0.555910 0.296469
v 0.774911 0.063450 0.296469
v 0.774911 0.555910 0.779428
v 0.774911 0.063450 0.779428
v 0.225089 0.555910 0.296469
v 0.225089 0.063450 0.296469
v 0.225089 0.555910 0.779428
v 0.225089 0.063450 0.779428
vn -1.0000 -0.0000 -0.0000
vn -0.0000 -0.0000 -1.0000
vn 1.0000 -0.0000 -0.0000
vn -0.0000 -0.0000 1.0000
vn -0.0000 -1.0000 -0.0000
vn -0.0000 1.0000 -0.0000
vn -0.9528 -0.3036 -0.0000
vn 0.9528 0.3036 -0.0000
vn 0.3090 -0.9511 -0.0000
vn -0.3090 0.9511 -0.0000
vn -0.9528 0.3036 -0.0000
vn 0.9528 -0.3036 -0.0000
vn -0.3090 -0.9511 -0.0000
vn 0.3090 0.9511 -0.0000
vt 0.000702 0.000628
vt 0.000702 0.484472
vt 0.484458 0.484472
vt 0.484458 0.000628
vt 0.242606 0.313408
vt 0.342095 0.359462
vt 0.342095 0.313408
vt 0.242606 0.359462
vt 0.385837 0.359462
vt 0.286348 0.359462
vt 0.385837 0.313408
vt 0.196612 0.313408
vt 0.097125 0.359462
vt 0.097125 0.313408
vt 0.240355 0.359462
vt 0.140867 0.359462
vt 0.140867 0.313408
vt 0.240355 0.313408
vt 0.196612 0.359462
vt 0.286348 0.313408
vt 0.002684 0.995825
vt 0.481975 0.518303
vt 0.481975 0.995825
vt 0.998005 0.517743
vt 0.517949 0.997827
vt 0.517949 0.517743
vt 1.000000 0.000000
vt 0.000000 1.000000
vt 0.000000 0.000000
vt 0.998837 0.001741
vt 0.517160 0.483581
vt 0.517160 0.001741
vt 0.002684 0.518303
vt 0.998005 0.997827
vt 1.000000 1.000000
vt 0.998837 0.483581
s 0
usemtl Material_casing
f 4/1/1 2/2/1 1/1/1
f 3/2/2 5/3/2 2/2/2
f 6/3/3 7/4/3 5/3/3
f 8/4/4 1/1/4 7/4/4
f 2/2/5 7/4/5 1/1/5
f 4/1/6 6/3/6 3/2/6
f 4/1/1 3/2/1 2/2/1
f 3/2/2 6/3/2 5/3/2
f 6/3/3 8/4/3 7/4/3
f 8/4/4 4/1/4 1/1/4
f 2/2/5 5/3/5 7/4/5
f 4/1/6 8/4/6 6/3/6
f 12/5/7 10/6/7 9/7/7
f 11/8/2 13/9/2 10/6/2
f 14/10/8 15/11/8 13/9/8
f 15/11/4 12/5/4 9/7/4
f 10/6/9 15/11/9 9/7/9
f 12/5/10 14/10/10 11/8/10
f 20/12/11 18/13/11 17/14/11
f 18/13/2 22/15/2 21/16/2
f 22/15/12 23/17/12 21/16/12
f 24/18/4 17/14/4 23/17/4
f 18/13/13 23/17/13 17/14/13
f 20/12/14 22/15/14 19/19/14
f 12/5/7 11/8/7 10/6/7
f 11/8/2 14/10/2 13/9/2
f 14/10/8 16/20/8 15/11/8
f 15/11/4 16/20/4 12/5/4
f 10/6/9 13/9/9 15/11/9
f 12/5/10 16/20/10 14/10/10
f 20/12/11 19/19/11 18/13/11
f 18/13/2 19/19/2 22/15/2
f 22/15/12 24/18/12 23/17/12
f 24/18/4 20/12/4 17/14/4
f 18/13/13 21/16/13 23/17/13
f 20/12/14 24/18/14 22/15/14
f 29/21/6 27/22/6 25/23/6
f 27/24/4 32/25/4 28/26/4
f 31/24/1 30/25/1 32/26/1
f 26/27/5 32/28/5 30/29/5
f 25/24/3 28/25/3 26/26/3
f 29/30/2 26/31/2 30/32/2
f 29/21/6 31/33/6 27/22/6
f 27/24/4 31/34/4 32/25/4
f 31/24/1 29/34/1 30/25/1
f 26/27/5 28/35/5 32/28/5
f 25/24/3 27/34/3 28/25/3
f 29/30/2 25/36/2 26/31/2
