# Blender 4.2.3 LTS
# www.blender.org
mtllib woodmill_master.mtl
o woodmill_master
v 0.558100 0.999074 0.976172
v 0.558100 -0.208146 0.976172
v 0.530855 0.960488 0.883882
v 0.530855 -0.169559 0.883882
v 0.441900 0.999074 0.976172
v 0.441900 -0.208146 0.976172
v 0.469145 0.960488 0.883882
v 0.469145 -0.169559 0.883882
v 0.441900 -0.208146 0.883882
v 0.441900 0.999074 0.883882
v 0.558100 0.999074 0.883882
v 0.558100 -0.208146 0.883882
v 0.469145 -0.169559 0.903743
v 0.469145 0.960488 0.903743
v 0.530855 0.960488 0.903743
v 0.530855 -0.169559 0.903743
v 0.441900 0.999074 0.023828
v 0.441900 -0.208146 0.023828
v 0.469145 0.960488 0.116118
v 0.469145 -0.169559 0.116118
v 0.558100 0.999074 0.023828
v 0.558100 -0.208146 0.023828
v 0.530855 0.960488 0.116118
v 0.530855 -0.169559 0.116118
v 0.558100 -0.208146 0.116118
v 0.558100 0.999074 0.116118
v 0.441900 0.999074 0.116118
v 0.441900 -0.208146 0.116118
v 0.530855 -0.169559 0.096257
v 0.530855 0.960488 0.096257
v 0.469145 0.960488 0.096257
v 0.469145 -0.169559 0.096257
v 0.441900 0.395464 0.023828
v 0.558100 0.395464 0.116118
v 0.441900 0.395464 0.116118
v 0.558100 0.395464 0.023828
v 0.530855 0.395464 0.116118
v 0.469145 0.395464 0.116118
v 0.530855 0.395464 0.096257
v 0.469145 0.395464 0.096257
v 0.558100 0.395464 0.976172
v 0.441900 0.395464 0.883882
v 0.558100 0.395464 0.883882
v 0.441900 0.395464 0.976172
v 0.469145 0.395464 0.883882
v 0.530855 0.395464 0.883882
v 0.469145 0.395464 0.903743
v 0.530855 0.395464 0.903743
v 0.441900 0.169723 0.023828
v 0.441900 0.169723 0.116118
v 0.558100 0.169723 0.023828
v 0.469145 0.189016 0.116118
v 0.469145 0.189016 0.096257
v 0.558100 0.169723 0.116118
v 0.530855 0.189016 0.116118
v 0.530855 0.189016 0.096257
v 0.558100 0.169723 0.976172
v 0.558100 0.169723 0.883882
v 0.441900 0.169723 0.976172
v 0.530855 0.189016 0.883882
v 0.530855 0.189016 0.903743
v 0.441900 0.169723 0.883882
v 0.469145 0.189016 0.883882
v 0.469145 0.189016 0.903743
v 0.619415 0.167187 0.116118
v 0.619415 0.262815 0.116118
v 0.619415 0.262814 0.023828
v 0.619415 0.262814 0.976172
v 0.619415 0.262814 0.883882
v 0.619415 0.167187 0.023828
v 0.619415 0.167187 0.976172
v 0.619415 0.167187 0.883882
v 0.379320 0.262814 0.023828
v 0.379320 0.262814 0.116118
v 0.379320 0.167187 0.883882
v 0.379320 0.262815 0.883882
v 0.379320 0.262814 0.976172
v 0.379320 0.167187 0.023828
v 0.379320 0.167187 0.116118
v 0.379320 0.167187 0.976172
v 0.619415 0.167187 0.116118
v 0.619415 0.262815 0.116118
v 0.619415 0.262814 0.023828
v 0.619415 0.262814 0.976172
v 0.619415 0.262814 0.883882
v 0.619415 0.167187 0.023828
v 0.619415 0.167187 0.976172
v 0.619415 0.167187 0.883882
v 0.379320 0.262814 0.023828
v 0.379320 0.262814 0.116118
v 0.379320 0.167187 0.883882
v 0.379320 0.262815 0.883882
v 0.379320 0.262814 0.976172
v 0.379320 0.167187 0.023828
v 0.379320 0.167187 0.116118
v 0.379320 0.167187 0.976172
v 1.000036 0.167187 0.116118
v 1.000036 0.262815 0.116118
v 1.000036 0.262814 0.023828
v 1.000036 0.262814 0.976172
v 1.000036 0.262814 0.883882
v 1.000036 0.167187 0.023828
v 1.000036 0.167187 0.976172
v 1.000036 0.167187 0.883882
v 0.000258 0.262814 0.023828
v 0.000258 0.262814 0.116118
v 0.000258 0.167187 0.883882
v 0.000258 0.262815 0.883882
v 0.000258 0.262814 0.976172
v 0.000258 0.167187 0.023828
v 0.000258 0.167187 0.116118
v 0.000258 0.167187 0.976172
v 1.000036 0.167187 0.473141
v 1.000036 0.167187 0.526859
v 1.000036 0.262815 0.473141
v 1.000036 0.262814 0.526859
v 0.619415 0.262815 0.473141
v 0.619415 0.262814 0.526859
v 0.619415 0.167187 0.526859
v 0.619415 0.167187 0.473141
v 0.379320 0.167187 0.473141
v 0.379320 0.167187 0.526859
v 0.000258 0.167187 0.473141
v 0.000258 0.167187 0.526859
v 0.000258 0.262815 0.473141
v 0.000258 0.262815 0.526859
v 0.379320 0.262815 0.473141
v 0.379320 0.262815 0.526859
v 0.379320 0.167187 0.294630
v 0.000258 0.167187 0.294630
v 0.000258 0.262814 0.294630
v 0.379320 0.262814 0.294630
v 0.379320 0.167187 0.705370
v 0.000258 0.167187 0.705370
v 0.000258 0.262815 0.705370
v 0.379320 0.262815 0.705370
v 0.619415 0.167187 0.294630
v 1.000036 0.167187 0.294630
v 1.000036 0.262815 0.294630
v 0.619415 0.262815 0.294630
v 1.000036 0.167187 0.705370
v 1.000036 0.262814 0.705370
v 0.619415 0.262814 0.705370
v 0.619415 0.167187 0.705370
v 0.619415 0.001180 0.116118
v 0.619415 0.001180 0.023828
v 0.619415 0.001180 0.976172
v 0.619415 0.001180 0.883882
v 0.379320 0.001180 0.023828
v 0.379320 0.001180 0.116118
v 0.379320 0.001180 0.883882
v 0.379320 0.001180 0.976172
v 1.000036 0.001180 0.116118
v 1.000036 0.001180 0.023828
v 1.000036 0.001180 0.976172
v 1.000036 0.001180 0.883882
v 0.000258 0.001180 0.023828
v 0.000258 0.001180 0.116118
v 0.000258 0.001180 0.883882
v 0.000258 0.001180 0.976172
v 0.558100 -0.019211 0.976172
v 0.558100 -0.019211 0.883882
v 0.441900 -0.019211 0.976172
v 0.530855 0.009729 0.883882
v 0.530855 0.009729 0.903743
v 0.441900 -0.019211 0.883882
v 0.469145 0.009729 0.883882
v 0.469145 0.009729 0.903743
v 0.441900 -0.019211 0.023828
v 0.441900 -0.019211 0.116118
v 0.558100 -0.019211 0.023828
v 0.469145 0.009729 0.116118
v 0.469145 0.009729 0.096257
v 0.558100 -0.019211 0.116118
v 0.530855 0.009729 0.116118
v 0.530855 0.009729 0.096257
vn -0.0000 1.0000 -0.0000
vn 1.0000 -0.0000 -0.0000
vn -1.0000 -0.0000 -0.0000
vn -0.0000 -1.0000 -0.0000
vn -0.0000 -0.0000 1.0000
vn -0.0000 -0.0000 -1.0000
vn -0.0413 -0.9991 -0.0000
vn -0.9044 0.4267 -0.0000
vn 0.9077 0.4196 -0.0000
vn 0.0405 -0.9992 -0.0000
vn -0.3098 -0.9508 -0.0000
vn 0.3156 -0.9489 -0.0000
vt 0.006811 0.458893
vt 0.102213 0.458660
vt 0.102586 0.552993
vt 0.007183 0.553225
vt 0.102499 0.530875
vt 0.081968 0.530925
vt 0.102301 0.480778
vt 0.081771 0.480828
vt 0.991650 0.550829
vt 0.896247 0.551061
vt 0.895875 0.456729
vt 0.991278 0.456496
vt 0.895962 0.478846
vt 0.916493 0.478796
vt 0.896160 0.528943
vt 0.916690 0.528893
vt 0.896448 0.601864
vt 0.102017 0.408884
vt 0.006614 0.409116
vt 0.991850 0.601632
vt 0.991081 0.406720
vt 0.895679 0.406952
vt 0.102786 0.603796
vt 0.007384 0.604028
vt 0.005395 0.100124
vt 0.100798 0.099892
vt 0.286550 0.408435
vt 0.008598 0.911755
vt 0.894459 0.097960
vt 0.989862 0.097728
vt 0.709926 0.098409
vt 0.711145 0.407402
vt 0.993065 0.909359
vt 0.897662 0.909591
vt 0.285331 0.099442
vt 0.104001 0.911523
vt 0.288534 0.911074
vt 0.287320 0.603347
vt 0.713129 0.910040
vt 0.711915 0.602314
vt 0.525393 0.098858
vt 0.469864 0.098993
vt 0.526612 0.407851
vt 0.471083 0.407986
vt 0.527382 0.602763
vt 0.471852 0.602898
vt 0.473067 0.910625
vt 0.528596 0.910489
s 0
usemtl Material
f 1/1/1 11/2/1 10/3/1 5/4/1
f 167/5/2 168/6/2 13/6/2 8/5/2
f 42/3/3 44/4/3 5/4/3 10/3/3
f 6/4/4 9/3/4 12/2/4 2/1/4
f 41/1/2 43/2/2 11/2/2 1/1/2
f 44/4/5 41/1/5 1/1/5 5/4/5
f 45/5/6 42/3/6 10/3/6 7/5/6
f 164/7/6 162/2/6 12/2/6 4/7/6
f 7/5/6 10/3/6 11/2/6 3/7/6
f 4/7/6 12/2/6 9/3/6 8/5/6
f 48/8/6 47/6/6 14/6/6 15/8/6
f 8/5/1 13/6/1 16/8/1 4/7/1
f 46/7/3 48/8/3 15/8/3 3/7/3
f 3/7/4 15/8/4 14/6/4 7/5/4
f 17/9/1 27/10/1 26/11/1 21/12/1
f 175/13/3 176/14/3 29/14/3 24/13/3
f 34/11/2 36/12/2 21/12/2 26/11/2
f 22/12/4 25/11/4 28/10/4 18/9/4
f 33/9/3 35/10/3 27/10/3 17/9/3
f 36/12/6 33/9/6 17/9/6 21/12/6
f 37/13/5 34/11/5 26/11/5 23/13/5
f 172/15/5 170/10/5 28/10/5 20/15/5
f 23/13/5 26/11/5 27/10/5 19/15/5
f 20/15/5 28/10/5 25/11/5 24/13/5
f 40/16/5 39/14/5 30/14/5 31/16/5
f 24/13/1 29/14/1 32/16/1 20/15/1
f 38/15/2 40/16/2 31/16/2 19/15/2
f 19/15/4 31/16/4 30/14/4 23/13/4
f 52/15/2 53/16/2 40/16/2 38/15/2
f 53/16/5 56/14/5 39/14/5 40/16/5
f 19/15/5 27/10/5 35/10/5 38/15/5
f 55/13/5 54/11/5 34/11/5 37/13/5
f 51/12/6 49/9/6 33/9/6 36/12/6
f 35/10/5 74/17/5 79/17/5 50/10/5
f 58/2/7 72/18/7 71/19/7 57/1/7
f 23/13/3 30/14/3 39/14/3 37/13/3
f 60/7/3 61/8/3 48/8/3 46/7/3
f 61/8/6 64/6/6 47/6/6 48/8/6
f 3/7/6 11/2/6 43/2/6 46/7/6
f 63/5/6 62/3/6 42/3/6 45/5/6
f 59/4/5 57/1/5 41/1/5 44/4/5
f 57/1/5 71/19/5 68/19/5 41/1/5
f 33/9/8 73/20/8 74/17/8 35/10/8
f 7/5/2 14/6/2 47/6/2 45/5/2
f 174/11/2 171/12/2 51/12/2 54/11/2
f 169/9/3 170/10/3 50/10/3 49/9/3
f 171/12/6 169/9/6 49/9/6 51/12/6
f 175/13/5 174/11/5 54/11/5 55/13/5
f 173/16/5 176/14/5 56/14/5 53/16/5
f 172/15/2 173/16/2 53/16/2 52/15/2
f 38/15/5 35/10/5 50/10/5 52/15/5
f 37/13/3 39/14/3 56/14/3 55/13/3
f 166/3/3 163/4/3 59/4/3 62/3/3
f 161/1/2 162/2/2 58/2/2 57/1/2
f 163/4/5 161/1/5 57/1/5 59/4/5
f 167/5/6 166/3/6 62/3/6 63/5/6
f 165/8/6 168/6/6 64/6/6 61/8/6
f 164/7/3 165/8/3 61/8/3 60/7/3
f 46/7/6 43/2/6 58/2/6 60/7/6
f 45/5/2 47/6/2 64/6/2 63/5/2
f 78/20/1 94/20/1 89/20/1 73/20/1
f 70/21/1 86/21/1 81/22/1 65/22/1
f 51/12/7 70/21/7 65/22/7 54/11/7
f 41/1/9 68/19/9 69/18/9 43/2/9
f 43/2/6 69/18/6 72/18/6 58/2/6
f 34/11/9 66/22/9 67/21/9 36/12/9
f 54/11/5 65/22/5 66/22/5 34/11/5
f 36/12/6 67/21/6 70/21/6 51/12/6
f 76/23/1 92/23/1 93/24/1 77/24/1
f 67/21/1 83/21/1 86/21/1 70/21/1
f 59/4/10 80/24/10 75/23/10 62/3/10
f 49/9/6 78/20/6 73/20/6 33/9/6
f 50/10/10 79/17/10 78/20/10 49/9/10
f 42/3/8 76/23/8 77/24/8 44/4/8
f 44/4/5 77/24/5 80/24/5 59/4/5
f 62/3/6 75/23/6 76/23/6 42/3/6
f 87/19/5 103/25/5 100/25/5 84/19/5
f 103/25/2 155/25/2 156/26/2 104/26/2
f 144/27/3 88/18/3 85/18/3 143/27/3
f 93/24/5 109/28/5 112/28/5 96/24/5
f 71/19/1 87/19/1 84/19/1 68/19/1
f 74/17/1 90/17/1 95/17/1 79/17/1
f 69/18/1 85/18/1 88/18/1 72/18/1
f 79/17/1 95/17/1 94/20/1 78/20/1
f 72/18/1 88/18/1 87/19/1 71/19/1
f 77/24/1 93/24/1 96/24/1 80/24/1
f 65/22/1 81/22/1 82/22/1 66/22/1
f 80/24/1 96/24/1 91/23/1 75/23/1
f 66/22/1 82/22/1 83/21/1 67/21/1
f 73/20/1 89/20/1 90/17/1 74/17/1
f 68/19/1 84/19/1 85/18/1 69/18/1
f 75/23/1 91/23/1 92/23/1 76/23/1
f 97/29/2 102/30/2 99/30/2 98/29/2
f 103/25/2 104/26/2 101/26/2 100/25/2
f 83/21/6 99/30/6 102/30/6 86/21/6
f 82/22/1 98/29/1 99/30/1 83/21/1
f 138/31/4 137/32/4 81/22/4 97/29/4
f 110/33/3 157/33/3 158/34/3 111/34/3
f 84/19/1 100/25/1 101/26/1 85/18/1
f 143/27/1 85/18/1 101/26/1 142/35/1
f 110/33/3 111/34/3 106/34/3 105/33/3
f 107/36/3 112/28/3 109/28/3 108/36/3
f 92/23/1 108/36/1 109/28/1 93/24/1
f 89/20/1 105/33/1 106/34/1 90/17/1
f 80/24/5 96/24/5 152/24/5 163/4/5 59/4/5
f 94/20/6 110/33/6 105/33/6 89/20/6
f 141/35/2 142/35/2 101/26/2 104/26/2
f 134/37/4 133/38/4 91/23/4 107/36/4
f 136/38/1 135/37/1 108/36/1 92/23/1
f 130/39/3 131/39/3 106/34/3 111/34/3
f 129/40/2 95/17/2 90/17/2 132/40/2
f 138/31/2 139/31/2 115/41/2 113/41/2
f 113/41/2 115/41/2 116/42/2 114/42/2
f 140/32/1 117/43/1 115/41/1 139/31/1
f 117/43/1 118/44/1 116/42/1 115/41/1
f 141/35/4 144/27/4 119/44/4 114/42/4
f 114/42/4 119/44/4 120/43/4 113/41/4
f 129/40/4 137/32/4 120/43/4 121/45/4
f 120/43/3 119/44/3 118/44/3 117/43/3
f 144/27/4 133/38/4 122/46/4 119/44/4
f 122/46/2 121/45/2 127/45/2 128/46/2
f 134/37/3 135/37/3 126/47/3 124/47/3
f 124/47/3 126/47/3 125/48/3 123/48/3
f 132/40/1 131/39/1 125/48/1 127/45/1
f 127/45/1 125/48/1 126/47/1 128/46/1
f 130/39/4 129/40/4 121/45/4 123/48/4
f 123/48/4 121/45/4 122/46/4 124/47/4
f 111/34/4 95/17/4 129/40/4 130/39/4
f 90/17/1 106/34/1 131/39/1 132/40/1
f 136/38/1 143/27/1 118/44/1 128/46/1
f 123/48/3 125/48/3 131/39/3 130/39/3
f 107/36/3 108/36/3 135/37/3 134/37/3
f 91/23/2 133/38/2 136/38/2 92/23/2
f 128/46/1 126/47/1 135/37/1 136/38/1
f 124/47/4 122/46/4 133/38/4 134/37/4
f 81/22/3 137/32/3 140/32/3 82/22/3
f 82/22/1 140/32/1 139/31/1 98/29/1
f 97/29/2 98/29/2 139/31/2 138/31/2
f 113/41/4 120/43/4 137/32/4 138/31/4
f 104/26/4 88/18/4 144/27/4 141/35/4
f 114/42/2 116/42/2 142/35/2 141/35/2
f 118/44/1 143/27/1 142/35/1 116/42/1
f 117/43/1 140/32/1 132/40/1 127/45/1
f 129/40/6 132/40/6 140/32/6 137/32/6
f 119/44/6 122/46/6 128/46/6 118/44/6
f 120/43/5 117/43/5 127/45/5 121/45/5
f 133/38/5 144/27/5 143/27/5 136/38/5
f 148/18/4 156/26/4 155/25/4 147/19/4
f 146/21/4 154/30/4 153/29/4 145/22/4
f 152/24/4 160/28/4 159/36/4 151/23/4
f 150/17/4 158/34/4 157/33/4 149/20/4
f 81/22/5 145/22/5 153/29/5 97/29/5
f 91/23/6 151/23/6 159/36/6 107/36/6
f 87/19/5 147/19/5 155/25/5 103/25/5
f 107/36/3 159/36/3 160/28/3 112/28/3
f 94/20/6 149/20/6 157/33/6 110/33/6
f 149/20/11 169/9/11 170/10/11 150/17/11
f 104/26/6 156/26/6 148/18/6 88/18/6
f 112/28/5 160/28/5 152/24/5 96/24/5
f 145/22/12 174/11/12 171/12/12 146/21/12
f 102/30/6 154/30/6 146/21/6 86/21/6
f 111/34/5 158/34/5 150/17/5 95/17/5
f 97/29/2 153/29/2 154/30/2 102/30/2
f 4/7/3 16/8/3 165/8/3 164/7/3
f 16/8/6 13/6/6 168/6/6 165/8/6
f 8/5/6 9/3/6 166/3/6 167/5/6
f 6/4/5 2/1/5 161/1/5 163/4/5
f 2/1/2 12/2/2 162/2/2 161/1/2
f 9/3/3 6/4/3 163/4/3 166/3/3
f 60/7/6 58/2/6 162/2/6 164/7/6
f 63/5/2 64/6/2 168/6/2 167/5/2
f 20/15/2 32/16/2 173/16/2 172/15/2
f 32/16/5 29/14/5 176/14/5 173/16/5
f 24/13/5 25/11/5 174/11/5 175/13/5
f 22/12/6 18/9/6 169/9/6 171/12/6
f 18/9/3 28/10/3 170/10/3 169/9/3
f 25/11/2 22/12/2 171/12/2 174/11/2
f 52/15/5 50/10/5 170/10/5 172/15/5
f 55/13/3 56/14/3 176/14/3 175/13/3
f 152/24/11 151/23/11 166/3/11 163/4/11
f 147/19/12 161/1/12 162/2/12 148/18/12
f 71/19/5 57/1/5 161/1/5 147/19/5 87/19/5
f 151/23/6 91/23/6 75/23/6 62/3/6 166/3/6
f 88/18/6 148/18/6 162/2/6 58/2/6 72/18/6
f 78/20/6 49/9/6 169/9/6 149/20/6 94/20/6
f 86/21/6 146/21/6 171/12/6 51/12/6 70/21/6
f 145/22/5 81/22/5 65/22/5 54/11/5 174/11/5
f 50/10/5 79/17/5 95/17/5 150/17/5 170/10/5
