# Blender 4.2.3 LTS
# www.blender.org
mtllib woodmill.mtl
o woodmill
v 0.558100 0.999074 0.976172
v 0.558100 -0.208146 0.976172
v 0.530855 0.960488 0.883882
v 0.530855 -0.169559 0.883882
v 0.441900 0.999074 0.976172
v 0.441900 -0.208146 0.976172
v 0.469145 0.960488 0.883882
v 0.469145 -0.169559 0.883882
v 0.441900 -0.208146 0.883882
v 0.441900 0.999074 0.883882
v 0.558100 0.999074 0.883882
v 0.558100 -0.208146 0.883882
v 0.469145 -0.169559 0.903743
v 0.469145 0.960488 0.903743
v 0.530855 0.960488 0.903743
v 0.530855 -0.169559 0.903743
v 0.441900 0.999074 0.023828
v 0.441900 -0.208146 0.023828
v 0.469145 0.960488 0.116118
v 0.469145 -0.169559 0.116118
v 0.558100 0.999074 0.023828
v 0.558100 -0.208146 0.023828
v 0.530855 0.960488 0.116118
v 0.530855 -0.169559 0.116118
v 0.558100 -0.208146 0.116118
v 0.558100 0.999074 0.116118
v 0.441900 0.999074 0.116118
v 0.441900 -0.208146 0.116118
v 0.530855 -0.169559 0.096257
v 0.530855 0.960488 0.096257
v 0.469145 0.960488 0.096257
v 0.469145 -0.169559 0.096257
v 0.441900 0.395464 0.023828
v 0.558100 0.395464 0.116118
v 0.441900 0.395464 0.116118
v 0.558100 0.395464 0.023828
v 0.530855 0.395464 0.116118
v 0.469145 0.395464 0.116118
v 0.530855 0.395464 0.096257
v 0.469145 0.395464 0.096257
v 0.558100 0.395464 0.976172
v 0.441900 0.395464 0.883882
v 0.558100 0.395464 0.883882
v 0.441900 0.395464 0.976172
v 0.469145 0.395464 0.883882
v 0.530855 0.395464 0.883882
v 0.469145 0.395464 0.903743
v 0.530855 0.395464 0.903743
v 0.441900 0.169723 0.023828
v 0.441900 0.169723 0.116118
v 0.558100 0.169723 0.023828
v 0.469145 0.189016 0.116118
v 0.469145 0.189016 0.096257
v 0.558100 0.169723 0.116118
v 0.530855 0.189016 0.116118
v 0.530855 0.189016 0.096257
v 0.558100 0.169723 0.976172
v 0.558100 0.169723 0.883882
v 0.441900 0.169723 0.976172
v 0.530855 0.189016 0.883882
v 0.530855 0.189016 0.903743
v 0.441900 0.169723 0.883882
v 0.469145 0.189016 0.883882
v 0.469145 0.189016 0.903743
v 0.619415 0.167187 0.116118
v 0.619415 0.262815 0.116118
v 0.619415 0.262814 0.023828
v 0.619415 0.262814 0.976172
v 0.619415 0.262814 0.883882
v 0.619415 0.167187 0.023828
v 0.619415 0.167187 0.976172
v 0.619415 0.167187 0.883882
v 0.379320 0.262814 0.023828
v 0.379320 0.262814 0.116118
v 0.379320 0.167187 0.883882
v 0.379320 0.262815 0.883882
v 0.379320 0.262814 0.976172
v 0.379320 0.167187 0.023828
v 0.379320 0.167187 0.116118
v 0.379320 0.167187 0.976172
v 0.619415 0.167187 0.116118
v 0.619415 0.262815 0.116118
v 0.619415 0.262814 0.023828
v 0.619415 0.262814 0.976172
v 0.619415 0.262814 0.883882
v 0.619415 0.167187 0.023828
v 0.619415 0.167187 0.976172
v 0.619415 0.167187 0.883882
v 0.379320 0.262814 0.023828
v 0.379320 0.262814 0.116118
v 0.379320 0.167187 0.883882
v 0.379320 0.262815 0.883882
v 0.379320 0.262814 0.976172
v 0.379320 0.167187 0.023828
v 0.379320 0.167187 0.116118
v 0.379320 0.167187 0.976172
v 2.000838 0.167187 0.116118
v 2.000838 0.262815 0.116118
v 2.000838 0.262814 0.023828
v 2.000838 0.262814 0.976172
v 2.000838 0.262814 0.883882
v 2.000838 0.167187 0.023828
v 2.000838 0.167187 0.976172
v 2.000838 0.167187 0.883882
v -1.000545 0.262814 0.023828
v -1.000545 0.262814 0.116118
v -1.000544 0.167187 0.883882
v -1.000544 0.262815 0.883882
v -1.000544 0.262814 0.976172
v -1.000545 0.167187 0.023828
v -1.000545 0.167187 0.116118
v -1.000544 0.167187 0.976172
v 2.000838 0.167187 0.473141
v 2.000838 0.167187 0.526859
v 2.000838 0.262815 0.473141
v 2.000838 0.262814 0.526859
v 0.619415 0.262815 0.473141
v 0.619415 0.262814 0.526859
v 0.619415 0.167187 0.526859
v 0.619415 0.167187 0.473141
v 0.379320 0.167187 0.473141
v 0.379320 0.167187 0.526859
v -1.000545 0.167187 0.473141
v -1.000545 0.167187 0.526859
v -1.000545 0.262815 0.473141
v -1.000545 0.262815 0.526859
v 0.379320 0.262815 0.473141
v 0.379320 0.262815 0.526859
v 0.379320 0.167187 0.294630
v -1.000545 0.167187 0.294630
v -1.000545 0.262814 0.294630
v 0.379320 0.262814 0.294630
v 0.379320 0.167187 0.705370
v -1.000545 0.167187 0.705370
v -1.000545 0.262815 0.705370
v 0.379320 0.262815 0.705370
v 0.619415 0.167187 0.294630
v 2.000838 0.167187 0.294630
v 2.000838 0.262815 0.294630
v 0.619415 0.262815 0.294630
v 2.000838 0.167187 0.705370
v 2.000838 0.262814 0.705370
v 0.619415 0.262814 0.705370
v 0.619415 0.167187 0.705370
v 0.619415 0.001180 0.116118
v 0.619415 0.001180 0.023828
v 0.619415 0.001180 0.976172
v 0.619415 0.001180 0.883882
v 0.379320 0.001180 0.023828
v 0.379320 0.001180 0.116118
v 0.379320 0.001180 0.883882
v 0.379320 0.001180 0.976172
v 2.000838 0.001180 0.116118
v 2.000838 0.001180 0.023828
v 2.000838 0.001180 0.976172
v 2.000838 0.001180 0.883882
v -1.000545 0.001180 0.023828
v -1.000545 0.001180 0.116118
v -1.000544 0.001180 0.883882
v -1.000544 0.001180 0.976172
v 0.558100 -0.019211 0.976172
v 0.558100 -0.019211 0.883882
v 0.441900 -0.019211 0.976172
v 0.530855 0.009729 0.883882
v 0.530855 0.009729 0.903743
v 0.441900 -0.019211 0.883882
v 0.469145 0.009729 0.883882
v 0.469145 0.009729 0.903743
v 0.441900 -0.019211 0.023828
v 0.441900 -0.019211 0.116118
v 0.558100 -0.019211 0.023828
v 0.469145 0.009729 0.116118
v 0.469145 0.009729 0.096257
v 0.558100 -0.019211 0.116118
v 0.530855 0.009729 0.116118
v 0.530855 0.009729 0.096257
vn -0.0000 1.0000 -0.0000
vn 1.0000 -0.0000 -0.0000
vn -1.0000 -0.0000 -0.0000
vn -0.0000 -1.0000 -0.0000
vn -0.0000 -0.0000 1.0000
vn -0.0000 -0.0000 -1.0000
vn -0.0413 -0.9991 -0.0000
vn -0.9044 0.4267 -0.0000
vn 0.9077 0.4196 -0.0000
vn 0.0405 -0.9992 -0.0000
vn -0.3098 -0.9508 -0.0000
vn 0.3156 -0.9489 -0.0000
vt 0.902768 0.519397
vt 0.999547 0.480740
vt 0.999545 0.519398
vt 0.923596 0.489804
vt 0.902770 0.489803
vt 0.902771 0.480739
vt 0.902769 0.510333
vt 0.923595 0.510334
vt 0.000900 0.480733
vt 0.097674 0.519392
vt 0.000898 0.519391
vt 0.076849 0.510328
vt 0.097675 0.510328
vt 0.097677 0.480734
vt 0.097677 0.489798
vt 0.076850 0.489798
vt 0.097679 0.459914
vt 0.902767 0.539796
vt 0.999543 0.539797
vt 0.000902 0.459914
vt 0.000896 0.539790
vt 0.097673 0.539791
vt 0.902772 0.459920
vt 0.999549 0.459920
vt 0.999512 0.999377
vt 0.902735 0.999376
vt 0.715576 0.539795
vt 0.999581 0.000859
vt 0.000865 0.999370
vt 0.097641 0.999371
vt 0.284864 0.539792
vt 0.284833 0.999372
vt 0.000933 0.000852
vt 0.097710 0.000853
vt 0.715544 0.999375
vt 0.902804 0.000859
vt 0.715581 0.459918
vt 0.715613 0.000857
vt 0.284901 0.000854
vt 0.284870 0.459916
vt 0.472024 0.999373
vt 0.528353 0.999373
vt 0.472055 0.539793
vt 0.528384 0.539793
vt 0.472061 0.459917
vt 0.528390 0.459917
vt 0.528422 0.000856
vt 0.472092 0.000855
s 0
usemtl Material
f 11/1/1 5/2/1 1/3/1
f 168/4/2 8/5/2 167/5/2
f 44/2/3 10/6/3 42/6/3
f 9/6/4 2/3/4 6/2/4
f 43/1/2 1/3/2 41/3/2
f 41/3/5 5/2/5 44/2/5
f 42/6/6 7/5/6 45/5/6
f 162/1/6 4/7/6 164/7/6
f 10/6/6 3/7/6 7/5/6
f 12/1/6 8/5/6 4/7/6
f 47/4/6 15/8/6 48/8/6
f 13/4/1 4/7/1 8/5/1
f 48/8/3 3/7/3 46/7/3
f 15/8/4 7/5/4 3/7/4
f 17/9/1 26/10/1 21/11/1
f 176/12/3 24/13/3 175/13/3
f 36/11/2 26/10/2 34/10/2
f 25/10/4 18/9/4 22/11/4
f 35/14/3 17/9/3 33/9/3
f 33/9/6 21/11/6 36/11/6
f 34/10/5 23/13/5 37/13/5
f 170/14/5 20/15/5 172/15/5
f 26/10/5 19/15/5 23/13/5
f 28/14/5 24/13/5 20/15/5
f 39/12/5 31/16/5 40/16/5
f 29/12/1 20/15/1 24/13/1
f 40/16/2 19/15/2 38/15/2
f 31/16/4 23/13/4 19/15/4
f 53/16/2 38/15/2 52/15/2
f 56/12/5 40/16/5 53/16/5
f 19/15/5 35/14/5 38/15/5
f 55/13/5 34/10/5 37/13/5
f 49/9/6 36/11/6 51/11/6
f 74/17/5 50/14/5 35/14/5
f 72/18/7 57/3/7 58/1/7
f 30/12/3 37/13/3 23/13/3
f 61/8/3 46/7/3 60/7/3
f 64/4/6 48/8/6 61/8/6
f 3/7/6 43/1/6 46/7/6
f 63/5/6 42/6/6 45/5/6
f 57/3/5 44/2/5 59/2/5
f 57/3/5 68/19/5 41/3/5
f 73/20/8 35/14/8 33/9/8
f 14/4/2 45/5/2 7/5/2
f 174/10/2 51/11/2 54/10/2
f 170/14/3 49/9/3 169/9/3
f 169/9/6 51/11/6 171/11/6
f 175/13/5 54/10/5 55/13/5
f 176/12/5 53/16/5 173/16/5
f 173/16/2 52/15/2 172/15/2
f 35/14/5 52/15/5 38/15/5
f 39/12/3 55/13/3 37/13/3
f 166/6/3 59/2/3 62/6/3
f 162/1/2 57/3/2 161/3/2
f 161/3/5 59/2/5 163/2/5
f 167/5/6 62/6/6 63/5/6
f 168/4/6 61/8/6 165/8/6
f 165/8/3 60/7/3 164/7/3
f 43/1/6 60/7/6 46/7/6
f 47/4/2 63/5/2 45/5/2
f 78/20/1 89/20/1 73/20/1
f 70/21/1 81/22/1 65/22/1
f 70/21/7 54/10/7 51/11/7
f 68/19/9 43/1/9 41/3/9
f 69/18/6 58/1/6 43/1/6
f 66/22/9 36/11/9 34/10/9
f 54/10/5 66/22/5 34/10/5
f 67/21/6 51/11/6 36/11/6
f 76/23/1 93/24/1 77/24/1
f 67/21/1 86/21/1 70/21/1
f 59/2/10 75/23/10 62/6/10
f 49/9/6 73/20/6 33/9/6
f 79/17/10 49/9/10 50/14/10
f 76/23/8 44/2/8 42/6/8
f 77/24/5 59/2/5 44/2/5
f 62/6/6 76/23/6 42/6/6
f 103/25/5 84/19/5 87/19/5
f 155/25/2 104/26/2 103/25/2
f 144/27/3 85/18/3 143/27/3
f 109/28/5 96/24/5 93/24/5
f 71/19/1 84/19/1 68/19/1
f 74/17/1 95/17/1 79/17/1
f 69/18/1 88/18/1 72/18/1
f 79/17/1 94/20/1 78/20/1
f 72/18/1 87/19/1 71/19/1
f 77/24/1 96/24/1 80/24/1
f 65/22/1 82/22/1 66/22/1
f 80/24/1 91/23/1 75/23/1
f 66/22/1 83/21/1 67/21/1
f 73/20/1 90/17/1 74/17/1
f 68/19/1 85/18/1 69/18/1
f 75/23/1 92/23/1 76/23/1
f 102/29/2 98/30/2 97/30/2
f 104/26/2 100/25/2 103/25/2
f 99/29/6 86/21/6 83/21/6
f 98/30/1 83/21/1 82/22/1
f 137/31/4 97/30/4 138/32/4
f 157/33/3 111/34/3 110/33/3
f 100/25/1 85/18/1 84/19/1
f 85/18/1 142/35/1 143/27/1
f 111/34/3 105/33/3 110/33/3
f 112/28/3 108/36/3 107/36/3
f 108/36/1 93/24/1 92/23/1
f 105/33/1 90/17/1 89/20/1
f 80/24/5 152/24/5 59/2/5
f 110/33/6 89/20/6 94/20/6
f 142/35/2 104/26/2 141/35/2
f 133/37/4 107/36/4 134/38/4
f 135/38/1 92/23/1 136/37/1
f 131/39/3 111/34/3 130/39/3
f 95/17/2 132/40/2 129/40/2
f 139/32/2 113/41/2 138/32/2
f 115/41/2 114/42/2 113/41/2
f 117/43/1 139/32/1 140/31/1
f 117/43/1 116/42/1 115/41/1
f 144/27/4 114/42/4 141/35/4
f 119/44/4 113/41/4 114/42/4
f 137/31/4 121/45/4 129/40/4
f 120/43/3 118/44/3 117/43/3
f 133/37/4 119/44/4 144/27/4
f 122/46/2 127/45/2 128/46/2
f 135/38/3 124/47/3 134/38/3
f 124/47/3 125/48/3 123/48/3
f 131/39/1 127/45/1 132/40/1
f 125/48/1 128/46/1 127/45/1
f 129/40/4 123/48/4 130/39/4
f 121/45/4 124/47/4 123/48/4
f 95/17/4 130/39/4 111/34/4
f 106/34/1 132/40/1 90/17/1
f 143/27/1 128/46/1 136/37/1
f 125/48/3 130/39/3 123/48/3
f 108/36/3 134/38/3 107/36/3
f 133/37/2 92/23/2 91/23/2
f 128/46/1 135/38/1 136/37/1
f 122/46/4 134/38/4 124/47/4
f 137/31/3 82/22/3 81/22/3
f 140/31/1 98/30/1 82/22/1
f 98/30/2 138/32/2 97/30/2
f 120/43/4 138/32/4 113/41/4
f 88/18/4 141/35/4 104/26/4
f 116/42/2 141/35/2 114/42/2
f 143/27/1 116/42/1 118/44/1
f 140/31/1 127/45/1 117/43/1
f 132/40/6 137/31/6 129/40/6
f 122/46/6 118/44/6 119/44/6
f 117/43/5 121/45/5 120/43/5
f 144/27/5 136/37/5 133/37/5
f 156/26/4 147/19/4 148/18/4
f 154/29/4 145/22/4 146/21/4
f 160/28/4 151/23/4 152/24/4
f 158/34/4 149/20/4 150/17/4
f 145/22/5 97/30/5 81/22/5
f 151/23/6 107/36/6 91/23/6
f 147/19/5 103/25/5 87/19/5
f 159/36/3 112/28/3 107/36/3
f 149/20/6 110/33/6 94/20/6
f 169/9/11 150/17/11 149/20/11
f 156/26/6 88/18/6 104/26/6
f 160/28/5 96/24/5 112/28/5
f 174/10/12 146/21/12 145/22/12
f 154/29/6 86/21/6 102/29/6
f 158/34/5 95/17/5 111/34/5
f 153/30/2 102/29/2 97/30/2
f 16/8/3 164/7/3 4/7/3
f 13/4/6 165/8/6 16/8/6
f 8/5/6 166/6/6 167/5/6
f 2/3/5 163/2/5 6/2/5
f 12/1/2 161/3/2 2/3/2
f 6/2/3 166/6/3 9/6/3
f 58/1/6 164/7/6 60/7/6
f 64/4/2 167/5/2 63/5/2
f 32/16/2 172/15/2 20/15/2
f 29/12/5 173/16/5 32/16/5
f 24/13/5 174/10/5 175/13/5
f 18/9/6 171/11/6 22/11/6
f 28/14/3 169/9/3 18/9/3
f 22/11/2 174/10/2 25/10/2
f 50/14/5 172/15/5 52/15/5
f 56/12/3 175/13/3 55/13/3
f 151/23/11 163/2/11 152/24/11
f 161/3/12 148/18/12 147/19/12
f 57/3/5 147/19/5 87/19/5
f 151/23/6 91/23/6 62/6/6
f 148/18/6 58/1/6 72/18/6
f 49/9/6 149/20/6 94/20/6
f 146/21/6 51/11/6 70/21/6
f 145/22/5 81/22/5 54/10/5
f 50/14/5 79/17/5 150/17/5
f 11/1/1 10/6/1 5/2/1
f 168/4/2 13/4/2 8/5/2
f 44/2/3 5/2/3 10/6/3
f 9/6/4 12/1/4 2/3/4
f 43/1/2 11/1/2 1/3/2
f 41/3/5 1/3/5 5/2/5
f 42/6/6 10/6/6 7/5/6
f 162/1/6 12/1/6 4/7/6
f 10/6/6 11/1/6 3/7/6
f 12/1/6 9/6/6 8/5/6
f 47/4/6 14/4/6 15/8/6
f 13/4/1 16/8/1 4/7/1
f 48/8/3 15/8/3 3/7/3
f 15/8/4 14/4/4 7/5/4
f 17/9/1 27/14/1 26/10/1
f 176/12/3 29/12/3 24/13/3
f 36/11/2 21/11/2 26/10/2
f 25/10/4 28/14/4 18/9/4
f 35/14/3 27/14/3 17/9/3
f 33/9/6 17/9/6 21/11/6
f 34/10/5 26/10/5 23/13/5
f 170/14/5 28/14/5 20/15/5
f 26/10/5 27/14/5 19/15/5
f 28/14/5 25/10/5 24/13/5
f 39/12/5 30/12/5 31/16/5
f 29/12/1 32/16/1 20/15/1
f 40/16/2 31/16/2 19/15/2
f 31/16/4 30/12/4 23/13/4
f 53/16/2 40/16/2 38/15/2
f 56/12/5 39/12/5 40/16/5
f 19/15/5 27/14/5 35/14/5
f 55/13/5 54/10/5 34/10/5
f 49/9/6 33/9/6 36/11/6
f 74/17/5 79/17/5 50/14/5
f 72/18/7 71/19/7 57/3/7
f 30/12/3 39/12/3 37/13/3
f 61/8/3 48/8/3 46/7/3
f 64/4/6 47/4/6 48/8/6
f 3/7/6 11/1/6 43/1/6
f 63/5/6 62/6/6 42/6/6
f 57/3/5 41/3/5 44/2/5
f 57/3/5 71/19/5 68/19/5
f 73/20/8 74/17/8 35/14/8
f 14/4/2 47/4/2 45/5/2
f 174/10/2 171/11/2 51/11/2
f 170/14/3 50/14/3 49/9/3
f 169/9/6 49/9/6 51/11/6
f 175/13/5 174/10/5 54/10/5
f 176/12/5 56/12/5 53/16/5
f 173/16/2 53/16/2 52/15/2
f 35/14/5 50/14/5 52/15/5
f 39/12/3 56/12/3 55/13/3
f 166/6/3 163/2/3 59/2/3
f 162/1/2 58/1/2 57/3/2
f 161/3/5 57/3/5 59/2/5
f 167/5/6 166/6/6 62/6/6
f 168/4/6 64/4/6 61/8/6
f 165/8/3 61/8/3 60/7/3
f 43/1/6 58/1/6 60/7/6
f 47/4/2 64/4/2 63/5/2
f 78/20/1 94/20/1 89/20/1
f 70/21/1 86/21/1 81/22/1
f 70/21/7 65/22/7 54/10/7
f 68/19/9 69/18/9 43/1/9
f 69/18/6 72/18/6 58/1/6
f 66/22/9 67/21/9 36/11/9
f 54/10/5 65/22/5 66/22/5
f 67/21/6 70/21/6 51/11/6
f 76/23/1 92/23/1 93/24/1
f 67/21/1 83/21/1 86/21/1
f 59/2/10 80/24/10 75/23/10
f 49/9/6 78/20/6 73/20/6
f 79/17/10 78/20/10 49/9/10
f 76/23/8 77/24/8 44/2/8
f 77/24/5 80/24/5 59/2/5
f 62/6/6 75/23/6 76/23/6
f 103/25/5 100/25/5 84/19/5
f 155/25/2 156/26/2 104/26/2
f 144/27/3 88/18/3 85/18/3
f 109/28/5 112/28/5 96/24/5
f 71/19/1 87/19/1 84/19/1
f 74/17/1 90/17/1 95/17/1
f 69/18/1 85/18/1 88/18/1
f 79/17/1 95/17/1 94/20/1
f 72/18/1 88/18/1 87/19/1
f 77/24/1 93/24/1 96/24/1
f 65/22/1 81/22/1 82/22/1
f 80/24/1 96/24/1 91/23/1
f 66/22/1 82/22/1 83/21/1
f 73/20/1 89/20/1 90/17/1
f 68/19/1 84/19/1 85/18/1
f 75/23/1 91/23/1 92/23/1
f 102/29/2 99/29/2 98/30/2
f 104/26/2 101/26/2 100/25/2
f 99/29/6 102/29/6 86/21/6
f 98/30/1 99/29/1 83/21/1
f 137/31/4 81/22/4 97/30/4
f 157/33/3 158/34/3 111/34/3
f 100/25/1 101/26/1 85/18/1
f 85/18/1 101/26/1 142/35/1
f 111/34/3 106/34/3 105/33/3
f 112/28/3 109/28/3 108/36/3
f 108/36/1 109/28/1 93/24/1
f 105/33/1 106/34/1 90/17/1
f 152/24/5 163/2/5 59/2/5
f 80/24/1 96/24/1 152/24/1
f 110/33/6 105/33/6 89/20/6
f 142/35/2 101/26/2 104/26/2
f 133/37/4 91/23/4 107/36/4
f 135/38/1 108/36/1 92/23/1
f 131/39/3 106/34/3 111/34/3
f 95/17/2 90/17/2 132/40/2
f 139/32/2 115/41/2 113/41/2
f 115/41/2 116/42/2 114/42/2
f 117/43/1 115/41/1 139/32/1
f 117/43/1 118/44/1 116/42/1
f 144/27/4 119/44/4 114/42/4
f 119/44/4 120/43/4 113/41/4
f 137/31/4 120/43/4 121/45/4
f 120/43/3 119/44/3 118/44/3
f 133/37/4 122/46/4 119/44/4
f 122/46/2 121/45/2 127/45/2
f 135/38/3 126/47/3 124/47/3
f 124/47/3 126/47/3 125/48/3
f 131/39/1 125/48/1 127/45/1
f 125/48/1 126/47/1 128/46/1
f 129/40/4 121/45/4 123/48/4
f 121/45/4 122/46/4 124/47/4
f 95/17/4 129/40/4 130/39/4
f 106/34/1 131/39/1 132/40/1
f 143/27/1 118/44/1 128/46/1
f 125/48/3 131/39/3 130/39/3
f 108/36/3 135/38/3 134/38/3
f 133/37/2 136/37/2 92/23/2
f 128/46/1 126/47/1 135/38/1
f 122/46/4 133/37/4 134/38/4
f 137/31/3 140/31/3 82/22/3
f 140/31/1 139/32/1 98/30/1
f 98/30/2 139/32/2 138/32/2
f 120/43/4 137/31/4 138/32/4
f 88/18/4 144/27/4 141/35/4
f 116/42/2 142/35/2 141/35/2
f 143/27/1 142/35/1 116/42/1
f 140/31/1 132/40/1 127/45/1
f 132/40/6 140/31/6 137/31/6
f 122/46/6 128/46/6 118/44/6
f 117/43/5 127/45/5 121/45/5
f 144/27/5 143/27/5 136/37/5
f 156/26/4 155/25/4 147/19/4
f 154/29/4 153/30/4 145/22/4
f 160/28/4 159/36/4 151/23/4
f 158/34/4 157/33/4 149/20/4
f 145/22/5 153/30/5 97/30/5
f 151/23/6 159/36/6 107/36/6
f 147/19/5 155/25/5 103/25/5
f 159/36/3 160/28/3 112/28/3
f 149/20/6 157/33/6 110/33/6
f 169/9/11 170/14/11 150/17/11
f 156/26/6 148/18/6 88/18/6
f 160/28/5 152/24/5 96/24/5
f 174/10/12 171/11/12 146/21/12
f 154/29/6 146/21/6 86/21/6
f 158/34/5 150/17/5 95/17/5
f 153/30/2 154/29/2 102/29/2
f 16/8/3 165/8/3 164/7/3
f 13/4/6 168/4/6 165/8/6
f 8/5/6 9/6/6 166/6/6
f 2/3/5 161/3/5 163/2/5
f 12/1/2 162/1/2 161/3/2
f 6/2/3 163/2/3 166/6/3
f 58/1/6 162/1/6 164/7/6
f 64/4/2 168/4/2 167/5/2
f 32/16/2 173/16/2 172/15/2
f 29/12/5 176/12/5 173/16/5
f 24/13/5 25/10/5 174/10/5
f 18/9/6 169/9/6 171/11/6
f 28/14/3 170/14/3 169/9/3
f 22/11/2 171/11/2 174/10/2
f 50/14/5 170/14/5 172/15/5
f 56/12/3 176/12/3 175/13/3
f 151/23/11 166/6/11 163/2/11
f 161/3/12 162/1/12 148/18/12
f 57/3/5 161/3/5 147/19/5
f 87/19/1 71/19/1 57/3/1
f 62/6/6 166/6/6 151/23/6
f 91/23/1 75/23/1 62/6/1
f 148/18/6 162/1/6 58/1/6
f 72/18/1 88/18/1 148/18/1
f 49/9/6 169/9/6 149/20/6
f 94/20/1 78/20/1 49/9/1
f 146/21/6 171/11/6 51/11/6
f 70/21/1 86/21/1 146/21/1
f 54/10/5 174/10/5 145/22/5
f 81/22/1 65/22/1 54/10/1
f 150/17/5 170/14/5 50/14/5
f 79/17/1 95/17/1 150/17/1
